<svg xmlns="http://www.w3.org/2000/svg" xmlns:xlink="http://www.w3.org/1999/xlink" viewBox="0 0 833.01858 656.6831"><defs><style>.a5679d46-05f0-4338-8aa2-b23432a3cfeb{isolation:isolate;}.a095a952-1fd0-411e-8ebf-7a6580724344,.a2e5233e-1ddb-412e-80c2-956305ceccbe,.ae158e92-302f-4ca6-ac26-422ae36946f0,.b0dff53c-b5fc-44c5-a2a1-aa030bac6d82,.b5c9ccbe-d242-4153-9c7d-1d5dea6f3d14,.b61f7fa3-f011-4c11-be21-daecb8ea1b67,.b6632977-c80e-47cd-877a-d62a62efac0e,.b8a87171-a213-438b-a3c7-887672347691,.bc217153-6115-44f0-8443-54d680c5cd47,.e15eeac4-5ceb-4e10-9d4d-033c995e7b92,.e199da4b-9f74-4cc8-9635-08727a28168b,.ea734db6-503d-46ef-81bf-0170f4c67238,.f439c09b-6a0f-4fe2-a2d5-1259f36e9a3a,.fe2ca15c-6db2-44a9-8458-6d9ae452ea59,.ff0c7609-188f-453c-a802-141592fd5f71{fill-rule:evenodd;}.a2e5233e-1ddb-412e-80c2-956305ceccbe,.ae158e92-302f-4ca6-ac26-422ae36946f0,.b5c9ccbe-d242-4153-9c7d-1d5dea6f3d14{mix-blend-mode:multiply;}.a2e5233e-1ddb-412e-80c2-956305ceccbe{fill:url(#b8b0de24-1ef9-478b-b23c-ed032833e86e);}.ae158e92-302f-4ca6-ac26-422ae36946f0{fill:url(#b20714d1-0e03-4ac8-bf89-0be9fd901be8);}.b5c9ccbe-d242-4153-9c7d-1d5dea6f3d14{fill:url(#e8681a19-5a0d-44d6-ae1d-4e3d0cb12e7b);}.fe2ca15c-6db2-44a9-8458-6d9ae452ea59{fill:url(#a57e8a2e-8b17-4812-9aef-e1eb91b250fd);}.b0dff53c-b5fc-44c5-a2a1-aa030bac6d82{fill:#022311;}.e15eeac4-5ceb-4e10-9d4d-033c995e7b92{fill:url(#b0286512-3a28-4645-ac85-bd637ad35396);}.bc217153-6115-44f0-8443-54d680c5cd47{fill:url(#a26d01fd-2185-445a-b783-85ee3b91ad62);}.b61f7fa3-f011-4c11-be21-daecb8ea1b67{fill:#396;}.a095a952-1fd0-411e-8ebf-7a6580724344{fill:#fff;}.b8a87171-a213-438b-a3c7-887672347691{fill:red;}.a188c343-779e-4166-a2f6-ec50bf1eeee9,.b6632977-c80e-47cd-877a-d62a62efac0e{fill:#ffc;}.ea734db6-503d-46ef-81bf-0170f4c67238{fill:url(#acc3e2c0-abf5-40f2-ba95-d3d24750f3a9);}.f439c09b-6a0f-4fe2-a2d5-1259f36e9a3a{fill:#f4ac0c;}.e199da4b-9f74-4cc8-9635-08727a28168b{fill:url(#f7b901a4-46fb-43b5-9e5a-f939d988c26f);}.ff0c7609-188f-453c-a802-141592fd5f71{fill:url(#a9b3a0a9-2002-4bff-aa7d-e7dffc4e8546);}.e30b437f-d57f-4338-8ff1-6603bd78f9d4{fill:#004817;}.bcf9acc8-024d-4285-bc67-b0a6ef088194{fill:#a31113;}.f1ff6e37-6c4d-40ad-8bfa-d1e08ee2f07e{fill:#f7f4f0;}.f930aeb3-11c8-44e1-8d1b-d27815c8826f{fill:#b5855a;}.b8bd7982-6633-4fa6-aac9-3860fe00f5bd{fill:#e31b27;}.a2d54ae2-c48b-4337-b54f-d1654d135bd6{fill:#00722a;}</style><radialGradient id="b8b0de24-1ef9-478b-b23c-ed032833e86e" cx="203.22183" cy="364.89624" r="159.12792" gradientTransform="translate(-65.38609 523.01137) scale(1.2852 0.158)" gradientUnits="userSpaceOnUse"><stop offset="0"/><stop offset="0.00297" stop-color="#020202"/><stop offset="0.08414" stop-color="#373737"/><stop offset="0.16844" stop-color="#656565"/><stop offset="0.25804" stop-color="#8f8f8f"/><stop offset="0.35162" stop-color="#b1b1b1"/><stop offset="0.45019" stop-color="#cecece"/><stop offset="0.55559" stop-color="#e4e4e4"/><stop offset="0.67093" stop-color="#f3f3f3"/><stop offset="0.80384" stop-color="#fcfcfc"/><stop offset="0.99462" stop-color="#fff"/></radialGradient><radialGradient id="b20714d1-0e03-4ac8-bf89-0be9fd901be8" cx="220.0712" cy="-140.66992" r="159.12594" gradientTransform="translate(-193.88691 606.07934) scale(1.7807 0.1848)" gradientUnits="userSpaceOnUse"><stop offset="0" stop-color="#003f05"/><stop offset="0.00297" stop-color="#024107"/><stop offset="0.08414" stop-color="#37683b"/><stop offset="0.16844" stop-color="#658b68"/><stop offset="0.25804" stop-color="#8faa91"/><stop offset="0.35162" stop-color="#b1c5b3"/><stop offset="0.45019" stop-color="#cedacf"/><stop offset="0.55559" stop-color="#e4eae4"/><stop offset="0.67093" stop-color="#f3f6f3"/><stop offset="0.80384" stop-color="#fcfdfc"/><stop offset="0.99462" stop-color="#fff"/></radialGradient><radialGradient id="e8681a19-5a0d-44d6-ae1d-4e3d0cb12e7b" cx="240.78336" cy="-867.32793" r="159.13735" gradientTransform="translate(-193.88691 943.17994) scale(1.7807 0.4105)" gradientUnits="userSpaceOnUse"><stop offset="0" stop-color="#006a1b"/><stop offset="0.00297" stop-color="#026b1d"/><stop offset="0.08414" stop-color="#378a4c"/><stop offset="0.16844" stop-color="#65a576"/><stop offset="0.25804" stop-color="#8fbd9a"/><stop offset="0.35162" stop-color="#b1d2ba"/><stop offset="0.45019" stop-color="#cee2d3"/><stop offset="0.55559" stop-color="#e4efe6"/><stop offset="0.67093" stop-color="#f3f8f4"/><stop offset="0.80384" stop-color="#fcfdfc"/><stop offset="0.99462" stop-color="#fff"/></radialGradient><linearGradient id="a57e8a2e-8b17-4812-9aef-e1eb91b250fd" x1="499.28254" y1="177.79573" x2="501.2825" y2="369.79492" gradientUnits="userSpaceOnUse"><stop offset="0" stop-color="#006a1b"/><stop offset="0.09238" stop-color="#005b16"/><stop offset="0.26605" stop-color="#00450f"/><stop offset="0.45736" stop-color="#00360a"/><stop offset="0.67794" stop-color="#002d07"/><stop offset="0.99462" stop-color="#002a06"/></linearGradient><linearGradient id="b0286512-3a28-4645-ac85-bd637ad35396" x1="212.05734" y1="565.25752" x2="446.04576" y2="176.77746" gradientUnits="userSpaceOnUse"><stop offset="0" stop-color="#a96015"/><stop offset="0.03135" stop-color="#ab6014"/><stop offset="0.37747" stop-color="#c25f09"/><stop offset="0.70702" stop-color="#cf5e02"/><stop offset="1" stop-color="#d45e00"/></linearGradient><linearGradient id="a26d01fd-2185-445a-b783-85ee3b91ad62" x1="63.227" y1="349.9257" x2="596.07028" y2="349.9257" gradientUnits="userSpaceOnUse"><stop offset="0" stop-color="#f96"/><stop offset="0.11332" stop-color="#ff955b"/><stop offset="0.34423" stop-color="#ff8f4c"/><stop offset="0.61123" stop-color="#ff8c43"/><stop offset="0.99462" stop-color="#ff8b40"/></linearGradient><linearGradient id="acc3e2c0-abf5-40f2-ba95-d3d24750f3a9" x1="71.72411" y1="508.18398" x2="833.01858" y2="508.18398" xlink:href="#a57e8a2e-8b17-4812-9aef-e1eb91b250fd"/><linearGradient id="f7b901a4-46fb-43b5-9e5a-f939d988c26f" x1="291.40599" y1="130.99655" x2="347.05335" y2="130.99655" gradientUnits="userSpaceOnUse"><stop offset="0" stop-color="#ffa415"/><stop offset="0.25926" stop-color="#ed870c"/><stop offset="0.52382" stop-color="#df7005"/><stop offset="0.77588" stop-color="#d76301"/><stop offset="1" stop-color="#d45e00"/></linearGradient><linearGradient id="a9b3a0a9-2002-4bff-aa7d-e7dffc4e8546" x1="239.0281" y1="139.0149" x2="286.60491" y2="139.0149" xlink:href="#f7b901a4-46fb-43b5-9e5a-f939d988c26f"/></defs><title>favola-header-logo</title><g class="a5679d46-05f0-4338-8aa2-b23432a3cfeb"><g id="a5dbb71e-c2c2-4397-a4fe-378f9534806d" data-name="Layer 1"><path class="a2e5233e-1ddb-412e-80c2-956305ceccbe" d="M461.92379,582.2886c0,13.8828-91.5639,25.1386-204.51509,25.1386-112.94971,0-204.5142-11.2558-204.5142-25.1386,0-13.8887,91.56449-25.1446,204.5142-25.1446C370.35989,557.144,461.92379,568.3999,461.92379,582.2886Z"/><path class="ae158e92-302f-4ca6-ac26-422ae36946f0" d="M566.72658,581.98c0,16.2382-126.86529,29.4043-283.36479,29.4043C126.86719,611.3843,0,598.2182,0,581.98c0-16.2422,126.86719-29.4063,283.36179-29.4063C439.86129,552.5737,566.72658,565.7378,566.72658,581.98Z"/><path class="b5c9ccbe-d242-4153-9c7d-1d5dea6f3d14" d="M603.60938,591.3589c0,36.0761-126.86529,65.3242-283.36479,65.3242-156.4946,0-283.36279-29.2481-283.36279-65.3242,0-36.0879,126.86819-65.336,283.36279-65.336C476.74409,526.0229,603.60938,555.271,603.60938,591.3589Z"/><path class="fe2ca15c-6db2-44a9-8458-6d9ae452ea59" d="M341.75289,197.1689C517.8027,175.9389,658.457,228.3467,658.457,316.7583c0,31.4917-17.8554,63.3999-48.7939,92.7002-11.1651-1.0879-22.1319-2.0391-32.7998-2.8594,26.89842-27.5049,42.2588-57.062,42.2588-86.2642C619.12208,238.6162,498.96,187.6553,341.75289,197.1689Z"/><path class="b0dff53c-b5fc-44c5-a2a1-aa030bac6d82" d="M88.2632,452.9673s-6.4453,32.6386,25.74069,38.623c6.17481,1.1504,18.6309-1.5791,35.834-6.582C123.48,477.7671,102.2637,466.8374,88.2632,452.9673Z"/><path class="e15eeac4-5ceb-4e10-9d4d-033c995e7b92" d="M329.64789,237.4829c147.1431-20.5547,266.42239,22.1255,266.42239,95.3315,0,24.4859-13.3574,49.2813-36.6211,72.2105-43.6426-2.002-87.32029-.7588-131.23239,5.8125-69.6206,10.414-137.5195,29.8418-204.5093,51.0703-24.1899,7.665-48.4116,15.8086-72.793,22.8135-2.851.8183-8.1464,2.3447-13.9125,3.7822-45.70369-17.4111-73.775-45.7363-73.775-81.25C63.227,334.0454,182.50979,258.039,329.64789,237.4829Z"/><path class="bc217153-6115-44f0-8443-54d680c5cd47" d="M329.64789,223.1787c147.1431-20.5567,266.42239,22.126,266.42239,95.3301,0,29.4643-19.3291,59.3735-52.0049,85.9477-38.5283-1.0683-77.09668.5811-115.84859,6.3809-69.6206,10.414-137.5195,29.8418-204.5093,51.0703-20.936,6.6367-41.895,13.626-62.9609,19.9268C101.2124,465.8442,63.227,434.2563,63.227,392.9438,63.227,319.7412,182.50979,243.7319,329.64789,223.1787Z"/><path class="b61f7fa3-f011-4c11-be21-daecb8ea1b67" d="M133.62739,306.2915l189.0782,47.7143-57.6621-108.3105C212.03659,259.9599,166.10549,281.4726,133.62739,306.2915Z"/><path class="a095a952-1fd0-411e-8ebf-7a6580724344" d="M276.65229,242.7163l52.9956,107.8818,58.2994-122.8457a510.37051,510.37051,0,0,0-58.2994,4.8316A536.48986,536.48986,0,0,0,276.65229,242.7163Z"/><path class="b8a87171-a213-438b-a3c7-887672347691" d="M398.99509,227.6201l-61.7275,126.102L563.8027,280.5508C538.35158,247.583,476.58689,227.6274,398.99509,227.6201Z"/><path class="b6632977-c80e-47cd-877a-d62a62efac0e" d="M573.34178,297.9101,338.47459,362.5088l54.45311,44.9106c43.93749-8.2822,89.13279-13.4473,132.68458-12.4805,31.85742-24.3286,50.7939-51.8349,50.7939-78.8134A55.00408,55.00408,0,0,0,573.34178,297.9101Z"/><path class="b6632977-c80e-47cd-877a-d62a62efac0e" d="M376.15529,410.7378l-44.2754-41.146-7.8404,53.2807C341.01219,418.5141,358.45119,414.4087,376.15529,410.7378Z"/><path class="b6632977-c80e-47cd-877a-d62a62efac0e" d="M310.64009,426.394l12.271-57.4468L172.0747,463.4311q4.48528,1.1514,9.148,2.1856C216.54739,454.4057,261.355,439.5825,310.64009,426.394Z"/><path class="b6632977-c80e-47cd-877a-d62a62efac0e" d="M148.72309,456.1196,319.3887,361.0644l-199.729-43.1386c-23.3111,21.2763-36.7652,44.3984-36.7652,67.1445C82.8945,416.0591,107.8726,440.77,148.72309,456.1196Z"/><path class="ea734db6-503d-46ef-81bf-0170f4c67238" d="M82.1245,455.6264s-7.6963,38.9854,30.74609,46.1358c35.98,6.6924,250.3564-96.8682,431.01119-87.5947l-.0146-.0088.1123.0088c87.3125,4.5058,207.45022,19.6738,289.0391,45.5771l-87.2022,57.624-.8584,85.42S574.5107,501.8794,440.40819,516.185c-92.3433,9.8487-274.7393,109.8868-344.97169,41.4561C78.0029,540.6548,59.6758,485.6723,82.1245,455.6264Z"/><polygon class="f439c09b-6a0f-4fe2-a2d5-1259f36e9a3a" points="147.679 505.195 160.145 522.778 180.954 525.032 168.95 540.934 174.861 561.247 154.975 553.494 137.817 563.792 137.532 543.097 121.019 529.154 140.727 524.112 147.679 505.195"/><polygon class="f439c09b-6a0f-4fe2-a2d5-1259f36e9a3a" points="705.91 466.984 710.915 491.097 729.245 501.156 712.338 514.526 710.31 539.297 694.852 523.45 675.265 528.702 682.619 505.536 672.549 484.006 692.547 485.543 705.91 466.984"/><path class="e199da4b-9f74-4cc8-9635-08727a28168b" d="M315.30609,238.6709c-28.8979-69.7388,16.4488-91.3462,27.9258-133.4619,6.0103-22.0581,5.1167-47.5987-4.0039-69.6011C332.07319,18.3388,321.061,6.1694,308.61379,0a78.79836,78.79836,0,0,1,14.5381,23.3227c28.8979,69.7359-16.4488,91.3452-27.9229,133.4619-6.0117,22.0577-5.1191,47.5958,4.001,69.6011,7.1548,17.2666,18.167,29.4365,30.6142,35.6074A78.76474,78.76474,0,0,1,315.30609,238.6709Z"/><path class="ff0c7609-188f-453c-a802-141592fd5f71" d="M247.62739,199.5986c-7.9873-43.0234,20.3262-49.8183,31.9038-72.3164a63.7974,63.7974,0,0,0,6.1109-39.9477c-1.9776-10.6543-6.75639-18.8814-13.0723-23.8765a45.51441,45.51441,0,0,1,5.4336,14.9731c7.9922,43.0235-20.3242,49.8155-31.9018,72.3164a63.80821,63.80821,0,0,0-6.1114,39.9478c1.97951,10.6543,6.7588,18.8813,13.0723,23.8765A45.64323,45.64323,0,0,1,247.62739,199.5986Z"/><path class="a188c343-779e-4166-a2f6-ec50bf1eeee9" d="M343.82519,513.25242l-24.85547,7.835-.20263,15.46387-16.96241,5.34668,3.22071-80.28125,16.375-5.16113L370.1582,520.353l-17.29834,5.45214Zm-9.60986-13.50391-14.83057-20.6914-.28418,25.45605Z"/><path class="a188c343-779e-4166-a2f6-ec50bf1eeee9" d="M247.22119,497.6909,251.3081,513.813l26.19531-6.6416,4.06153,16.01757-26.19531,6.64161,6.37011,25.125-16.78515,4.25585-18.58008-73.28125,46.542-11.7998,4.06055,16.0166Z"/><path class="a188c343-779e-4166-a2f6-ec50bf1eeee9" d="M418.21582,428.18308l-2.416,80.02832L399.457,513.36277l-47.78565-64.2041,17.93555-5.65332,30.72852,41.9502,1.4541-52.09473Z"/><path class="a188c343-779e-4166-a2f6-ec50bf1eeee9" d="M454.68554,501.18894a34.7901,34.7901,0,0,1-14.01172-12.26953,48.0951,48.0951,0,0,1-5.42089-40.02734,34.78727,34.78727,0,0,1,10.24316-15.55567,32.92893,32.92893,0,0,1,34.8125-4.71484,34.79356,34.79356,0,0,1,14.01172,12.27051,48.08562,48.08562,0,0,1,5.4209,40.02734A34.77073,34.77073,0,0,1,489.498,496.4741a32.92815,32.92815,0,0,1-34.8125,4.71484Zm23.72461-18.68945a18.261,18.261,0,0,0,4.91114-8.34863,30.04386,30.04386,0,0,0-3.0293-22.36817,18.27225,18.27225,0,0,0-6.95508-6.74121A14.58156,14.58156,0,0,0,456.585,447.31a18.24249,18.24249,0,0,0-4.91114,8.34863,30.02824,30.02824,0,0,0,3.0293,22.36816,18.23044,18.23044,0,0,0,6.95508,6.74122,14.57728,14.57728,0,0,0,16.75195-2.26856Z"/><path class="a188c343-779e-4166-a2f6-ec50bf1eeee9" d="M521.04687,426.09324l17.37695,1.39063-4.67773,58.457,29.31348,2.3457L561.707,505.188l-46.69141-3.73633Z"/><path class="a188c343-779e-4166-a2f6-ec50bf1eeee9" d="M623.33593,501.92137l-25.35351-6.03321-8.11133,13.168-17.30078-4.11719,43.9668-67.248,16.70312,3.97461,9.05176,79.86425-17.64453-4.19824Zm-1.31738-16.52247-2.1084-25.36914L606.60156,481.73Z"/><path class="e30b437f-d57f-4338-8ff1-6603bd78f9d4" d="M340.94043,555.82859h16.8374a21.36239,21.36239,0,0,1,10.35742,2.38184,16.25548,16.25548,0,0,1,6.72949,6.84277,22.19923,22.19923,0,0,1,2.354,10.499,31.80658,31.80658,0,0,1-3.07422,14.35546,22.74369,22.74369,0,0,1-8.55713,9.52637,23.59515,23.59515,0,0,1-12.57275,3.35449H333.186Zm12.40625,36.36035a11.67378,11.67378,0,0,0,6.896-2.04589,12.6462,12.6462,0,0,0,4.40332-5.63575,21.01467,21.01467,0,0,0,1.49512-8.15039q0-4.7622-2.437-7.3457-2.4375-2.58252-7.14453-2.583h-6.4253l-4.20947,25.76074Z"/><path class="e30b437f-d57f-4338-8ff1-6603bd78f9d4" d="M395.77246,566.09324l-1.27344,7.916h17.2251l-1.606,9.92871H392.8374l-1.38477,8.58691h20.32715l-1.77246,10.26367H378.93506l7.75439-46.96H417.041l-1.71679,10.26465Z"/><path class="e30b437f-d57f-4338-8ff1-6603bd78f9d4" d="M423.90918,555.82859H434.876l-5.98242,36.42774h18.5l-1.77246,10.53222h-29.4668Z"/><path class="e30b437f-d57f-4338-8ff1-6603bd78f9d4" d="M457.69433,555.82859h10.9668l-7.75488,46.96h-10.9668Z"/><path class="e30b437f-d57f-4338-8ff1-6603bd78f9d4" d="M515.6289,555.82859l-24.31543,46.96H480.51269l-8.80566-46.96h11.24316l5.53906,30.52442,15.84082-30.52442Z"/><path class="e30b437f-d57f-4338-8ff1-6603bd78f9d4" d="M527.03808,566.09324l-1.27343,7.916h17.22558l-1.60644,9.92871H524.10254l-1.38477,8.58691h20.32715l-1.77246,10.26367H510.20019l7.75488-46.96h30.35157l-1.7168,10.26465Z"/><path class="e30b437f-d57f-4338-8ff1-6603bd78f9d4" d="M584.52929,581.89109a16.516,16.516,0,0,1-7.91992,6.80957l6.59082,14.08789H571.73535L565.97461,590.311h-5.53809l-2.0498,12.47754h-10.9668l7.75488-46.96h16.56055q7.42089,0,11.52051,3.958,4.09863,3.95947,4.09863,11.00195A21.011,21.011,0,0,1,584.52929,581.89109ZM574.6709,567.7368a6.48025,6.48025,0,0,0-4.48633-1.44239h-5.76075l-2.32617,13.752h6.53614a7.45741,7.45741,0,0,0,5.64941-2.07911,8.191,8.191,0,0,0,1.99414-5.90429A5.5227,5.5227,0,0,0,574.6709,567.7368Z"/><path class="e30b437f-d57f-4338-8ff1-6603bd78f9d4" d="M611.33691,586.15183,608.623,602.78855H597.65625l2.76953-16.97265-9.8584-29.98731h11.02148l6.09278,18.7168,12.40625-18.7168H631.2207Z"/><path class="bcf9acc8-024d-4285-bc67-b0a6ef088194" d="M451.92227,381.21607c7.42218.58978,12.585,7.35212,12.61365,15.76262l-31.24875,3.74641a21.27159,21.27159,0,0,1,.25652-2.5679C435.21405,388.14315,443.45865,380.544,451.92227,381.21607Z"/><path class="f1ff6e37-6c4d-40ad-8bfa-d1e08ee2f07e" d="M445.278,391.97356a2.19489,2.19489,0,0,1-2.51552,1.11356,1.50356,1.50356,0,0,1-.6739-2.25511,2.19668,2.19668,0,0,1,2.51629-1.11449A1.50638,1.50638,0,0,1,445.278,391.97356Z"/><path class="f1ff6e37-6c4d-40ad-8bfa-d1e08ee2f07e" d="M448.65229,389.20587a.79784.79784,0,0,1,1.24083-.33716,1.32,1.32,0,0,1,.66649,1.43527.7984.7984,0,0,1-1.24106.33714A1.32117,1.32117,0,0,1,448.65229,389.20587Z"/><path class="f1ff6e37-6c4d-40ad-8bfa-d1e08ee2f07e" d="M453.97746,393.06923a1.28014,1.28014,0,0,1,1.4667-.65078.87763.87763,0,0,1,.39365,1.31623,1.28225,1.28225,0,0,1-1.46745.65169A.879.879,0,0,1,453.97746,393.06923Z"/><path class="f1ff6e37-6c4d-40ad-8bfa-d1e08ee2f07e" d="M454.7737,388.11613a.75944.75944,0,0,1,.86964-.38688.521.521,0,0,1,.2339.78155.75994.75994,0,0,1-.87067.385A.51958.51958,0,0,1,454.7737,388.11613Z"/><path class="f1ff6e37-6c4d-40ad-8bfa-d1e08ee2f07e" d="M449.78279,393.33388a.72022.72022,0,0,1,.89647-.25979.55324.55324,0,0,1,.09586.83159.72272.72272,0,0,1-.89808.25866A.55269.55269,0,0,1,449.78279,393.33388Z"/><path class="f1ff6e37-6c4d-40ad-8bfa-d1e08ee2f07e" d="M446.64862,387.479a.72051.72051,0,0,1-.89645.26009.55317.55317,0,0,1-.09352-.83167.72107.72107,0,0,1,.89647-.25979A.55275.55275,0,0,1,446.64862,387.479Z"/><path class="f930aeb3-11c8-44e1-8d1b-d27815c8826f" d="M486.879,327.56405c5.81771.73684,10.0197,8.837,10.0197,8.837s4.58642,7.92379,1.74041,12.60632c-2.95344,4.86459-7.59482,6.42719-10.98748,4.10616a.59937.59937,0,0,1,.22279-1.1276,2.16809,2.16809,0,0,0,2.268-1.80093c.45737-2.60526-.59114-5.57305-4.02018-4.68444-3.433.88986-10.58837,6.76689-10.58837,6.76689s-3.08929,3.69333-6.78724-3.0475c-3.6946-6.73842,1.40168-6.77565,1.40168-6.77565s9.45426-1.68553,12.29254-3.65207c2.8384-1.96842.86436-4.51166-1.69852-5.74041a2.34282,2.34282,0,0,0-2.94.56787.67613.67613,0,0,1-1.12273-.51343C476.6798,329.2395,480.83543,326.79643,486.879,327.56405Z"/><path class="b8bd7982-6633-4fa6-aac9-3860fe00f5bd" d="M564.642,333.99743l-29.3548-18.40019a.70825.70825,0,0,1-.15518-1.16222c6.99768-6.41055,18.99874-7.4737,27.289-2.27791s9.83057,14.74643,3.67426,21.68238A1.19641,1.19641,0,0,1,564.642,333.99743Z"/><path class="f1ff6e37-6c4d-40ad-8bfa-d1e08ee2f07e" d="M563.91135,328.54178a1.93931,1.93931,0,0,1-1.65893-.51907,47.82655,47.82655,0,0,0-19.11106-11.98964,1.41741,1.41741,0,0,1-1.02513-1.16538,1.321,1.321,0,0,1,.833-1.25812,18.53448,18.53448,0,0,1,17.26441.78842c5.05816,3.16793,6.85639,8.466,5.03276,13.20123A1.63468,1.63468,0,0,1,563.91135,328.54178Z"/><path class="f1ff6e37-6c4d-40ad-8bfa-d1e08ee2f07e" d="M543.58506,317.91218q8.07778,4.97028,16.03013,10.04564A42.74551,42.74551,0,0,0,543.58506,317.91218Z"/><path class="b8bd7982-6633-4fa6-aac9-3860fe00f5bd" d="M560.04144,320.42525a13.082,13.082,0,0,1-2.8313.7726l.004-.00317a9.20939,9.20939,0,0,1,1.79628-1.89778l.04481-.03387a1.068,1.068,0,0,1,.72827-.21649,1.00559,1.00559,0,0,1,.67826.30606.57826.57826,0,0,1,.14168.57193.74338.74338,0,0,1-.45561.45736Z"/><path class="b8bd7982-6633-4fa6-aac9-3860fe00f5bd" d="M561.9889,322.83926a13.40949,13.40949,0,0,1-2.965.31524l.002-.00317a10.61833,10.61833,0,0,1,2.22844-1.57652l.05239-.02754a1.129,1.129,0,0,1,.76758-.09907.89522.89522,0,0,1,.59092.40482.56842.56842,0,0,1-.002.58427.84187.84187,0,0,1-.56.37728Z"/><path class="b8bd7982-6633-4fa6-aac9-3860fe00f5bd" d="M563.28747,325.05545a12.04548,12.04548,0,0,1-2.56024.05254l.002-.00317a9.72413,9.72413,0,0,1,2.09311-1.16222l.04644-.02152a1.00793,1.00793,0,0,1,.66674-.025.7032.7032,0,0,1,.44926.38044.481.481,0,0,1-.0754.49122.79524.79524,0,0,1-.52308.27536Z"/><path class="b8bd7982-6633-4fa6-aac9-3860fe00f5bd" d="M552.912,315.95584a7.06982,7.06982,0,0,0-.27305,2.37666l.00357-.00285a9.4894,9.4894,0,0,0,1.88753-1.83923l.031-.04336a.614.614,0,0,0,.09128-.615.83279.83279,0,0,0-.531-.45451,1.08433,1.08433,0,0,0-.73263.025.74731.74731,0,0,0-.44966.46052Z"/><path class="b8bd7982-6633-4fa6-aac9-3860fe00f5bd" d="M549.50923,315.01929a7.062,7.062,0,0,0,.31588,2.37065l.00357-.00317a8.30253,8.30253,0,0,0,1.3974-2.09876l.02146-.04621a.61049.61049,0,0,0-.06393-.61814.93987.93987,0,0,0-.63182-.36177,1.04177,1.04177,0,0,0-.7112.139.659.659,0,0,0-.32739.52255Z"/><path class="b8bd7982-6633-4fa6-aac9-3860fe00f5bd" d="M546.50367,314.53693a6.25961,6.25961,0,0,0,.54253,1.99369l.002-.00317a6.74338,6.74338,0,0,0,.92431-1.89461l.01151-.0402a.54136.54136,0,0,0-.12578-.52224.83515.83515,0,0,0-.56994-.25985.84713.84713,0,0,0-.57943.17313.54256.54256,0,0,0-.21312.47286Z"/><path class="b8bd7982-6633-4fa6-aac9-3860fe00f5bd" d="M557.52407,318.25211a11.46333,11.46333,0,0,1-2.45705,1.3632l.002-.006a7.81114,7.81114,0,0,1,1.07553-2.21619l.029-.04336a.948.948,0,0,1,.62786-.36778,1.13372,1.13372,0,0,1,.75763.14528.66168.66168,0,0,1,.33337.51907.64141.64141,0,0,1-.281.54091Z"/><path class="f930aeb3-11c8-44e1-8d1b-d27815c8826f" d="M396.10564,399.56464c-4.88886-3.2385-5.06647-12.36195-5.06647-12.36195s-.60037-9.13571,4.02588-12.07231c4.80325-3.0522,9.65649-2.39633,11.66938,1.18774a.59937.59937,0,0,1-.69938.91213,2.16806,2.16806,0,0,0-2.83116.60949c-1.56445,2.13285-1.93959,5.258,1.52818,5.98084,3.47188.7235,12.49061-1.37436,12.49061-1.37436s4.406-1.942,4.73411,5.73952c.32616,7.67789-4.259,5.453-4.259,5.453s-9.22228-2.67834-12.6381-2.1731c-3.41677.50686-2.77407,3.66152-1.021,5.8987a2.34283,2.34283,0,0,0,2.88726.79371.67613.67613,0,0,1,.779.95777C405.99127,402.58211,401.18333,402.9308,396.10564,399.56464Z"/><path class="b8bd7982-6633-4fa6-aac9-3860fe00f5bd" d="M387.94727,355.215l-.27264,34.64426a.85708.85708,0,0,1-1.1452.74311c-11.53089-2.58144-20.64048-12.2305-20.56427-22.01424s9.311-16.11577,20.84759-14.52627A1.29018,1.29018,0,0,1,387.94727,355.215Z"/><path class="f1ff6e37-6c4d-40ad-8bfa-d1e08ee2f07e" d="M382.573,358.70521a1.65794,1.65794,0,0,1,.54391,1.684,38.19731,38.19731,0,0,0-.1887,22.56018,1.25571,1.25571,0,0,1-.571,1.48474,2.03516,2.03516,0,0,1-1.9043-.047c-6.25674-3.21372-10.66152-9.13328-10.61544-15.09963.04416-5.96821,4.54038-10.28357,10.83685-11.22228A2.34513,2.34513,0,0,1,382.573,358.70521Z"/><path class="f1ff6e37-6c4d-40ad-8bfa-d1e08ee2f07e" d="M384.65178,381.58394c-.0166-6.32293.039-12.61776.14634-18.91737A34.1052,34.1052,0,0,0,384.65178,381.58394Z"/><path class="b8bd7982-6633-4fa6-aac9-3860fe00f5bd" d="M376.42509,366.26476a15.66893,15.66893,0,0,1,2.70954,2.00206l-.006-.00172a14.32291,14.32291,0,0,1-3.23082-.53l-.06612-.02032a1.29549,1.29549,0,0,1-.716-.50562.82357.82357,0,0,1-.12159-.73786.66883.66883,0,0,1,.52019-.42125,1.13262,1.13262,0,0,1,.79369.14706Z"/><path class="b8bd7982-6633-4fa6-aac9-3860fe00f5bd" d="M377.72479,363.33893a14.36815,14.36815,0,0,1,2.30713,2.3563l-.00472,0a15.48879,15.48879,0,0,1-3.17271-1.06655l-.06435-.03008a1.22978,1.22978,0,0,1-.616-.60081.72823.72823,0,0,1,.04245-.71549.75735.75735,0,0,1,.62883-.30553,1.20454,1.20454,0,0,1,.777.27794Z"/><path class="b8bd7982-6633-4fa6-aac9-3860fe00f5bd" d="M379.24284,361.06906a12.15859,12.15859,0,0,1,1.75623,2.1501l-.00472,0a13.47139,13.47139,0,0,1-2.63789-1.16928l-.054-.02818a1.032,1.032,0,0,1-.46952-.554.58311.58311,0,0,1,.11032-.58218.6856.6856,0,0,1,.57764-.19415,1.08237,1.08237,0,0,1,.643.30014Z"/><path class="b8bd7982-6633-4fa6-aac9-3860fe00f5bd" d="M376.35831,374.67914a10.12774,10.12774,0,0,0,2.73383-1.01743l-.00543-.00154a14.61253,14.61253,0,0,0-3.22852-.63843l-.06712-.00354a.87443.87443,0,0,0-.72109.24572.69147.69147,0,0,0-.13559.69067,1.10787,1.10787,0,0,0,.51326.61,1.14158,1.14158,0,0,0,.79314.14033Z"/><path class="b8bd7982-6633-4fa6-aac9-3860fe00f5bd" d="M377.61162,378.066a8.81962,8.81962,0,0,0,2.33637-1.51521l-.00577-.00138a13.19989,13.19989,0,0,0-3.18185-.08505l-.06387.006a.71708.71708,0,0,0-.59051,1.10706,1.18572,1.18572,0,0,0,.62141.53188,1.02789,1.02789,0,0,0,.77859.00371Z"/><path class="b8bd7982-6633-4fa6-aac9-3860fe00f5bd" d="M379.089,380.87613a7.15146,7.15146,0,0,0,1.781-1.50978l-.00471,0a10.66625,10.66625,0,0,0-2.64851.21l-.05081.01135a.6287.6287,0,0,0-.47738.38159.68393.68393,0,0,0,.09931.62142,1.02838,1.02838,0,0,0,.57064.40183.8371.8371,0,0,0,.64936-.06736Z"/><path class="b8bd7982-6633-4fa6-aac9-3860fe00f5bd" d="M375.76246,369.54871a15.87769,15.87769,0,0,1,3.09537,1.37316l-.00777.00148a12.35154,12.35154,0,0,1-3.09427.25047L375.69,371.172a1.31911,1.31911,0,0,1-.81184-.34066,1.0106,1.0106,0,0,1-.347-.72083.62485.62485,0,0,1,.33615-.55651.99621.99621,0,0,1,.7675-.04541Z"/><path class="bcf9acc8-024d-4285-bc67-b0a6ef088194" d="M341.26529,396.78339c-3.51006-4.965-2.22907-11.93726,2.68488-16.61417l18.42869,17.45256a16.73423,16.73423,0,0,1-1.63813,1.26218C354.00442,403.38739,345.26811,402.44476,341.26529,396.78339Z"/><path class="f1ff6e37-6c4d-40ad-8bfa-d1e08ee2f07e" d="M351.02112,394.9764a1.68673,1.68673,0,0,1,1.95936.95514,1.25983,1.25983,0,0,1-.9715,1.67034,1.688,1.688,0,0,1-1.96029-.9551A1.2622,1.2622,0,0,1,351.02112,394.9764Z"/><path class="f1ff6e37-6c4d-40ad-8bfa-d1e08ee2f07e" d="M347.64629,394.40092c-.36971.17254-.74662-.09149-.84218-.58866a1.13033,1.13033,0,0,1,.49489-1.21156c.36923-.17231.7466.09165.84228.5888A1.13135,1.13135,0,0,1,347.64629,394.40092Z"/><path class="f1ff6e37-6c4d-40ad-8bfa-d1e08ee2f07e" d="M347.144,388.933a.98366.98366,0,0,1-1.1433-.55608.73537.73537,0,0,1,.56686-.97512.98522.98522,0,0,1,1.14423.556A.73645.73645,0,0,1,347.144,388.933Z"/><path class="f1ff6e37-6c4d-40ad-8bfa-d1e08ee2f07e" d="M343.8277,391.17921a.58351.58351,0,0,1-.67849-.32915.43657.43657,0,0,1,.33651-.57911.584.584,0,0,1,.67794.33081A.43536.43536,0,0,1,343.8277,391.17921Z"/><path class="f1ff6e37-6c4d-40ad-8bfa-d1e08ee2f07e" d="M349.47817,391.40774a.56464.56464,0,0,1-.61794-.4163.453.453,0,0,1,.43754-.52057.56677.56677,0,0,1,.61812.41794A.45245.45245,0,0,1,349.47817,391.40774Z"/><path class="f1ff6e37-6c4d-40ad-8bfa-d1e08ee2f07e" d="M347.67514,396.60965a.56486.56486,0,0,1,.61811.41614.45277.45277,0,0,1-.43881.51914.5653.5653,0,0,1-.618-.41631A.45244.45244,0,0,1,347.67514,396.60965Z"/><path class="bcf9acc8-024d-4285-bc67-b0a6ef088194" d="M226.87627,385.73316c8.1098-2.33964,18.0527,3.54081,23.77833,13.46991l-29.925,17.2133a34.29593,34.29593,0,0,1-1.47258-3.14009C214.21047,400.75672,217.62884,388.4016,226.87627,385.73316Z"/><path class="f1ff6e37-6c4d-40ad-8bfa-d1e08ee2f07e" d="M227.25928,401.16647a2.003,2.003,0,0,1-1.85906,2.3454,2.47512,2.47512,0,0,1-2.22729-2.38972,2.0046,2.0046,0,0,1,1.85924-2.3468A2.48054,2.48054,0,0,1,227.25928,401.16647Z"/><path class="f1ff6e37-6c4d-40ad-8bfa-d1e08ee2f07e" d="M228.89022,396.51463c-.16736-.64441.30818-1.04962,1.06069-.90618a2.23939,2.23939,0,0,1,1.66437,1.42373c.16713.64358-.30842,1.04952-1.06093.90626A2.24153,2.24153,0,0,1,228.89022,396.51463Z"/><path class="f1ff6e37-6c4d-40ad-8bfa-d1e08ee2f07e" d="M237.03854,398.90218a1.16839,1.16839,0,0,1,1.08294-1.36928,1.44474,1.44474,0,0,1,1.30032,1.39467,1.1702,1.1702,0,0,1-1.0831,1.37067A1.44722,1.44722,0,0,1,237.03854,398.90218Z"/><path class="f1ff6e37-6c4d-40ad-8bfa-d1e08ee2f07e" d="M234.51132,392.72207a.69323.69323,0,0,1,.64142-.81308.85765.85765,0,0,1,.77226.82806.69343.69343,0,0,1-.64372.81132A.85524.85524,0,0,1,234.51132,392.72207Z"/><path class="f1ff6e37-6c4d-40ad-8bfa-d1e08ee2f07e" d="M232.86022,400.93121a.6572.6572,0,0,1,.75534-.67384.90163.90163,0,0,1,.66276.94368.65931.65931,0,0,1-.75778.67317A.90061.90061,0,0,1,232.86022,400.93121Z"/><path class="f1ff6e37-6c4d-40ad-8bfa-d1e08ee2f07e" d="M225.63925,395.29331a.65741.65741,0,0,1-.75513.67419.90111.90111,0,0,1-.66037-.94474.65783.65783,0,0,1,.75534-.67384A.90037.90037,0,0,1,225.63925,395.29331Z"/><path class="f930aeb3-11c8-44e1-8d1b-d27815c8826f" d="M222.74826,360.522c.50873-5.84208,8.43831-10.35768,8.43831-10.35768s7.73834-4.89284,12.5286-2.23217c4.97639,2.76091,6.71934,7.33762,4.53278,10.81846a.59937.59937,0,0,1-1.13545-.17851,2.16809,2.16809,0,0,0-1.88826-2.19578c-2.62115-.35511-5.54566.80867-4.52361,4.20033,1.02346,3.39558,7.17586,10.31558,7.17586,10.31558s3.81135,2.94247-2.77969,6.90125c-6.58875,3.95535-6.82529-1.13558-6.82529-1.13558s-2.054-9.3811-4.13009-12.14028c-2.07792-2.75924-4.542-.68723-5.66957,1.92174a2.34283,2.34283,0,0,0,.68243,2.91557.67613.67613,0,0,1-.46912,1.142C224.82137,370.64783,222.21762,366.59094,222.74826,360.522Z"/><path class="f930aeb3-11c8-44e1-8d1b-d27815c8826f" d="M260.51985,436.19077c-4.51083-1.96872-5.649-9.48643-5.649-9.48643s-1.49927-7.46653,2.12-10.56542c3.75742-3.22013,7.95855-3.38161,10.05929-.71012a.52066.52066,0,0,1-.49651.85559,1.95083,1.95083,0,0,0-2.34342.91448c-1.10062,1.99034-1.08178,4.62866,1.94754,4.72348,3.03289.09476,10.481-2.9476,10.481-2.9476s3.53948-2.24461,4.64971,4.05907c1.10819,6.301-3.0345,5.12625-3.0345,5.12625s-8.138-.8772-10.99029.03587c-2.85288.91455-1.96465,3.42968-.23076,5.02523a2.02113,2.02113,0,0,0,2.543.23757.55131.55131,0,0,1,.76653.679C269.2591,437.25217,265.20521,438.23767,260.51985,436.19077Z"/><path class="f930aeb3-11c8-44e1-8d1b-d27815c8826f" d="M186.57,432.71653c-4.57288,3.67118-13.3175,1.06342-13.3175,1.06342s-8.885-2.20879-10.27415-7.50936c-1.44539-5.50435.65656-9.92769,4.68324-10.75418a.59937.59937,0,0,1,.656.94383,2.16808,2.16808,0,0,0-.28116,2.88234c1.55548,2.1394,4.41814,3.44795,6.16221.36474,1.74593-3.08694,2.49266-12.31629,2.49266-12.31629s-.50879-4.78806,6.90814-2.76252c7.41287,2.02627,3.898,5.71664,3.898,5.71664s-5.35829,7.9695-5.91671,11.377c-.55716,3.40892,2.64344,3.75691,5.30806,2.768a2.34283,2.34283,0,0,0,1.63485-2.50868.67613.67613,0,0,1,1.14943-.4505C192.45326,424.21838,191.322,428.90433,186.57,432.71653Z"/><path class="f930aeb3-11c8-44e1-8d1b-d27815c8826f" d="M119.23962,411.62683c-2.14038,5.45963-11.02338,7.548-11.02338,7.548s-8.80626,2.50428-12.64835-1.40266c-3.99226-4.05573-4.36953-8.93853-1.28772-11.65877a.59937.59937,0,0,1,1.0386.49238,2.16808,2.16808,0,0,0,1.19008,2.6402c2.41367,1.082,5.54793.79293,5.52694-2.74931-.02124-3.54641-3.96511-11.924-3.96511-11.924s-2.82344-3.90034,4.61819-5.83321c7.43845-1.93022,6.22538,3.01972,6.22538,3.01972s-.68326,9.579.52759,12.81272c1.21263,3.2343,4.16216,1.94386,5.98162-.23964a2.34284,2.34284,0,0,0,.17009-2.98954.67613.67613,0,0,1,.773-.96263C120.11524,401.32808,121.46518,405.95577,119.23962,411.62683Z"/><path class="b8bd7982-6633-4fa6-aac9-3860fe00f5bd" d="M146.15154,363.2143,167.768,336.13978a.85708.85708,0,0,1,1.35961.12312c7.47273,9.15333,8.67532,22.36858,2.57133,30.01507s-17.27761,6.9208-25.36759-1.456A1.29019,1.29019,0,0,1,146.15154,363.2143Z"/><path class="f1ff6e37-6c4d-40ad-8bfa-d1e08ee2f07e" d="M152.53379,363.7898a1.65794,1.65794,0,0,1,.61262-1.66026,38.19743,38.19743,0,0,0,14.08529-17.6239,1.2557,1.2557,0,0,1,1.36626-.81479,2.0352,2.0352,0,0,1,1.46841,1.2134c2.93474,6.39235,2.74159,13.76839-.98045,18.43164-3.72168,4.66589-9.92323,5.28172-15.45443,2.13014A2.34509,2.34509,0,0,1,152.53379,363.7898Z"/><path class="f1ff6e37-6c4d-40ad-8bfa-d1e08ee2f07e" d="M165.03279,344.51463q-5.83956,7.47354-11.80157,14.7855A34.10526,34.10526,0,0,0,165.03279,344.51463Z"/><path class="b8bd7982-6633-4fa6-aac9-3860fe00f5bd" d="M162.03828,361.64321a15.66864,15.66864,0,0,1-.89387-3.2482l.00369.00508a14.32259,14.32259,0,0,1,2.21316,2.41268l.03945.05683a1.29551,1.29551,0,0,1,.2507.83993.8236.8236,0,0,1-.36021.65535.66883.66883,0,0,1-.66929.00989,1.13261,1.13261,0,0,1-.53328-.606Z"/><path class="b8bd7982-6633-4fa6-aac9-3860fe00f5bd" d="M159.20877,363.14106a14.368,14.368,0,0,1-.35859-3.27817l.00369.00293a15.48888,15.48888,0,0,1,1.836,2.79869l.032.06341a1.2298,1.2298,0,0,1,.11325.853.72822.72822,0,0,1-.47539.53641.75737.75737,0,0,1-.68324-.14821,1.20457,1.20457,0,0,1-.43928-.69856Z"/><path class="b8bd7982-6633-4fa6-aac9-3860fe00f5bd" d="M156.61279,363.9882a12.1579,12.1579,0,0,1-.05277-2.77569l.00369.00293a13.4721,13.4721,0,0,1,1.352,2.54908l.025.05549a1.03192,1.03192,0,0,1,.027.72569.58311.58311,0,0,1-.44641.38965.68562.68562,0,0,1-.57417-.20417,1.08239,1.08239,0,0,1-.32023-.63326Z"/><path class="b8bd7982-6633-4fa6-aac9-3860fe00f5bd" d="M167.28891,355.06772a10.12768,10.12768,0,0,0-2.77831-.8888l.00332.00457a14.61258,14.61258,0,0,0,2.14438,2.4965l.0506.04425a.87438.87438,0,0,0,.71884.25223.69145.69145,0,0,0,.53329-.45935,1.10784,1.10784,0,0,0-.02676-.79678,1.14156,1.14156,0,0,0-.537-.60032Z"/><path class="b8bd7982-6633-4fa6-aac9-3860fe00f5bd" d="M168.39563,351.63018a8.81921,8.81921,0,0,0-2.77328-.25182l.00369.00465a13.20042,13.20042,0,0,0,2.44954,2.03251l.054.03471a.71708.71708,0,0,0,1.14826-.50575,1.18577,1.18577,0,0,0-.16008-.80214,1.02793,1.02793,0,0,0-.61-.4839Z"/><path class="b8bd7982-6633-4fa6-aac9-3860fe00f5bd" d="M168.96987,348.5077a7.15167,7.15167,0,0,0-2.33323.087l.0037.00294a10.66613,10.66613,0,0,0,2.21241,1.471l.047.02247a.62873.62873,0,0,0,.61112-.00516.68394.68394,0,0,0,.3058-.55,1.02839,1.02839,0,0,0-.20049-.66851.83713.83713,0,0,0-.55224-.34818Z"/><path class="b8bd7982-6633-4fa6-aac9-3860fe00f5bd" d="M164.58806,359.47019a15.87859,15.87859,0,0,1-1.58579-2.992l.007.00365a12.35113,12.35113,0,0,1,2.58794,1.71457l.05061.0421a1.31912,1.31912,0,0,1,.428.76942,1.01061,1.01061,0,0,1-.17245.78118.62484.62484,0,0,1-.60813.23.99619.99619,0,0,1-.63159-.43842Z"/><path class="a2d54ae2-c48b-4337-b54f-d1654d135bd6" d="M531.68634,369.37367a3.18165,3.18165,0,0,1,.15881-.85026c.81335-2.00815,3.28725-1.95555,4.97629-.72333,1.68909,1.2298,3.10079,4.02923,1.52352,5.45566a1.14687,1.14687,0,0,1-1.00581.14717c.8279,1.302,1.4805,2.95462.58355,4.32532a3.79134,3.79134,0,0,1-5.35728.94466c-.46089-.33723-.387-.52814-.64979-1.00631-1.05,1.41464-1.70116,1.56832-2.53231,2.90892a.34154.34154,0,0,1-.25828.15193.42575.42575,0,0,1-.30828-.114c-.56624-.50567-1.58591-1.4608-1.45815-1.62863,1.15131-1.525,2.34246-.62138,3.28949-2.29354a5.22248,5.22248,0,0,1-1.76094-.86326c-1.68915-1.2302-1.78431-3.33545-.61275-5.12546A2.92026,2.92026,0,0,1,531.68634,369.37367Z"/><path class="bcf9acc8-024d-4285-bc67-b0a6ef088194" d="M441.84441,351.067c-10.20508,0-18.50895,6.10932-18.50895,13.61481,0,7.50693,8.30387,13.61338,18.50895,13.61338,10.20546,0,18.5019-6.10645,18.5019-13.61338C460.34631,357.17627,452.04987,351.067,441.84441,351.067Z"/><path class="f1ff6e37-6c4d-40ad-8bfa-d1e08ee2f07e" d="M439.5843,359.57657c1.39375,0,2.5197-.83011,2.5197-1.85667,0-1.024-1.12595-1.85667-2.5197-1.85667-1.40118,0-2.52752.83269-2.52752,1.85667C437.05678,358.74646,438.18312,359.57657,439.5843,359.57657Z"/><path class="f1ff6e37-6c4d-40ad-8bfa-d1e08ee2f07e" d="M434.25833,361.5132c-.98481,0-1.78275.58591-1.78275,1.31189,0,.72455.79794,1.31161,1.78275,1.31161.98521,0,1.78666-.58706,1.78666-1.31161C436.045,362.09911,435.24354,361.5132,434.25833,361.5132Z"/><path class="f1ff6e37-6c4d-40ad-8bfa-d1e08ee2f07e" d="M437.05678,368.63384c-.81318,0-1.47.48466-1.47,1.08294,0,.59971.65681,1.08408,1.47,1.08408s1.47781-.48437,1.47781-1.08408C438.53459,369.1185,437.87,368.63384,437.05678,368.63384Z"/><path class="f1ff6e37-6c4d-40ad-8bfa-d1e08ee2f07e" d="M442.104,372.69406c-.67948,0-1.23307.40729-1.23307.91151,0,.50163.55359.90748,1.23307.90748.68339,0,1.237-.40585,1.237-.90748C443.341,373.10135,442.78739,372.69406,442.104,372.69406Z"/><path class="f1ff6e37-6c4d-40ad-8bfa-d1e08ee2f07e" d="M430.49383,366.7717c-.48087,0-.87026.28792-.87026.64315s.38939.64315.87026.64315c.48479,0,.87066-.28792.87066-.64315S430.97862,366.7717,430.49383,366.7717Z"/><path class="f1ff6e37-6c4d-40ad-8bfa-d1e08ee2f07e" d="M439.26763,364.6901c-.4734.05494-.80181.38486-.72561.73606a.87435.87435,0,0,0,1.00045.53212c.47344-.05322.79794-.38457.72131-.73577A.86685.86685,0,0,0,439.26763,364.6901Z"/><path class="f1ff6e37-6c4d-40ad-8bfa-d1e08ee2f07e" d="M447.38071,357.24933c-.48127.05609-.80576.38485-.733.73461a.88016.88016,0,0,0,1.00006.53644c.47736-.05753.80185-.38342.72913-.73462A.88476.88476,0,0,0,447.38071,357.24933Z"/><path class="f1ff6e37-6c4d-40ad-8bfa-d1e08ee2f07e" d="M433.33842,358.52038c.47305-.05753.79793-.38342.72135-.73462a.87021.87021,0,0,0-.99658-.53643c-.477.05609-.7979.38485-.72522.73461A.87784.87784,0,0,0,433.33842,358.52038Z"/><path class="f1ff6e37-6c4d-40ad-8bfa-d1e08ee2f07e" d="M453.222,366.45991c-.71388,0-1.29054.42828-1.29054.95494,0,.52809.57666.9535,1.29054.9535.72522,0,1.30188-.42541,1.30188-.9535C454.52383,366.88819,453.94717,366.45991,453.222,366.45991Z"/><path class="f1ff6e37-6c4d-40ad-8bfa-d1e08ee2f07e" d="M443.574,363.908c.821,0,1.48132-.48466,1.48132-1.08294s-.66032-1.08437-1.48132-1.08437c-.80537,0-1.47.4861-1.47,1.08437S442.76862,363.908,443.574,363.908Z"/><path class="f1ff6e37-6c4d-40ad-8bfa-d1e08ee2f07e" d="M445.05922,367.41485c-1.36286,0-2.45871.80882-2.45871,1.80748,0,1.0001,1.09585,1.80749,2.45871,1.80749,1.35544,0,2.4548-.80739,2.4548-1.80749C447.514,368.22367,446.41466,367.41485,445.05922,367.41485Z"/><path class="f1ff6e37-6c4d-40ad-8bfa-d1e08ee2f07e" d="M452.657,361.96967c0-.84679-.93165-1.52934-2.08105-1.52934-1.149,0-2.08066.68255-2.08066,1.52934,0,.8442.93164,1.53107,2.08066,1.53107C451.72538,363.50074,452.657,362.81387,452.657,361.96967Z"/><path class="bcf9acc8-024d-4285-bc67-b0a6ef088194" d="M526.13981,316.72182c-9.992,0-18.12244,7.405-18.12244,16.50229,0,9.099,8.13047,16.50054,18.12244,16.50054,9.99235,0,18.11554-7.40152,18.11554-16.50054C544.25535,324.12682,536.13216,316.72182,526.13981,316.72182Z"/><path class="f1ff6e37-6c4d-40ad-8bfa-d1e08ee2f07e" d="M523.9269,327.03618a2.2606,2.2606,0,1,0-2.47474-2.25044A2.364,2.364,0,0,0,523.9269,327.03618Z"/><path class="f1ff6e37-6c4d-40ad-8bfa-d1e08ee2f07e" d="M518.71215,329.38354a1.59721,1.59721,0,1,0,1.74935,1.59013A1.672,1.672,0,0,0,518.71215,329.38354Z"/><path class="f1ff6e37-6c4d-40ad-8bfa-d1e08ee2f07e" d="M521.45216,338.01435a1.31948,1.31948,0,1,0,1.44695,1.31261A1.37936,1.37936,0,0,0,521.45216,338.01435Z"/><path class="f1ff6e37-6c4d-40ad-8bfa-d1e08ee2f07e" d="M526.394,342.93568a1.10727,1.10727,0,1,0,1.21119,1.10483A1.15979,1.15979,0,0,0,526.394,342.93568Z"/><path class="f1ff6e37-6c4d-40ad-8bfa-d1e08ee2f07e" d="M515.02626,335.75729a.78267.78267,0,1,0,.85247.77955A.81807.81807,0,0,0,515.02626,335.75729Z"/><path class="f1ff6e37-6c4d-40ad-8bfa-d1e08ee2f07e" d="M523.61684,333.23422a.79283.79283,0,0,0-.71046.89215.8447.8447,0,0,0,.97956.645.788.788,0,0,0,.70625-.89181A.83867.83867,0,0,0,523.61684,333.23422Z"/><path class="f1ff6e37-6c4d-40ad-8bfa-d1e08ee2f07e" d="M531.5605,324.21538a.79548.79548,0,0,0-.71773.89041.85125.85125,0,0,0,.97917.65021.79519.79519,0,0,0,.71391-.89042A.8555.8555,0,0,0,531.5605,324.21538Z"/><path class="f1ff6e37-6c4d-40ad-8bfa-d1e08ee2f07e" d="M517.81144,325.756a.78969.78969,0,0,0,.70629-.89042.84321.84321,0,0,0-.97577-.6502.79256.79256,0,0,0-.71008.89041A.84931.84931,0,0,0,517.81144,325.756Z"/><path class="f1ff6e37-6c4d-40ad-8bfa-d1e08ee2f07e" d="M537.27977,335.37937a1.16207,1.16207,0,1,0,1.27469,1.15747A1.21391,1.21391,0,0,0,537.27977,335.37937Z"/><path class="f1ff6e37-6c4d-40ad-8bfa-d1e08ee2f07e" d="M527.83327,332.28628a1.319,1.319,0,1,0-1.43929-1.31261A1.38473,1.38473,0,0,0,527.83327,332.28628Z"/><path class="f1ff6e37-6c4d-40ad-8bfa-d1e08ee2f07e" d="M529.28749,336.53684a2.20023,2.20023,0,1,0,2.40354,2.19082A2.30337,2.30337,0,0,0,529.28749,336.53684Z"/><path class="f1ff6e37-6c4d-40ad-8bfa-d1e08ee2f07e" d="M536.72664,329.93683a2.04629,2.04629,0,1,0-2.0376,1.85578A1.95042,1.95042,0,0,0,536.72664,329.93683Z"/><path class="b8bd7982-6633-4fa6-aac9-3860fe00f5bd" d="M404.08609,350.79587a26.40583,26.40583,0,0,0,8.70886-.17681,20.98125,20.98125,0,0,0,8.90531,2.00679c6.28449.17,12.31881-1.86005,14.31415-4.834,1.56655-2.275.608-4.69708-2.38517-6.4206,4.13649-1.18994,6.88574-3.32772,7.17824-5.70257a3.50953,3.50953,0,0,0-.10031-1.221l-4.36318,1.20391c-.00912.00991-.00378.01836.00214.02775a3.06636,3.06636,0,0,1-1.14482,1.87977,10.27622,10.27622,0,0,1-4.7799,2.042,3.00644,3.00644,0,0,0-2.26522,1.34975c-.22231.61383.17963,1.22814,1.086,1.60269,2.73221,1.14271,3.72316,2.89491,2.59088,4.574-1.32746,1.92318-5.34885,3.23361-9.60266,3.11207h0a13.97318,13.97318,0,0,1-6.53328-1.56971,5.47244,5.47244,0,0,0-3.66732-.38876,17.97242,17.97242,0,0,1-6.481.2117c-2.80285-.41514-4.895-1.51123-5.62232-2.82309l-4.096,1.12878C397.07265,348.6795,400.054,350.20067,404.08609,350.79587Z"/><path class="bcf9acc8-024d-4285-bc67-b0a6ef088194" d="M494.13426,356.66105c-9.992,0-18.12243,7.405-18.12243,16.5023,0,9.099,8.13046,16.50054,18.12243,16.50054,9.99236,0,18.11555-7.40152,18.11555-16.50054C512.24981,364.06606,504.12662,356.66105,494.13426,356.66105Z"/><path class="f1ff6e37-6c4d-40ad-8bfa-d1e08ee2f07e" d="M491.92135,366.97542a2.2606,2.2606,0,1,0-2.47474-2.25044A2.364,2.364,0,0,0,491.92135,366.97542Z"/><path class="f1ff6e37-6c4d-40ad-8bfa-d1e08ee2f07e" d="M486.7066,369.32278a1.59721,1.59721,0,1,0,1.74935,1.59013A1.672,1.672,0,0,0,486.7066,369.32278Z"/><path class="f1ff6e37-6c4d-40ad-8bfa-d1e08ee2f07e" d="M489.44661,377.95359a1.31948,1.31948,0,1,0,1.44695,1.31261A1.37936,1.37936,0,0,0,489.44661,377.95359Z"/><path class="f1ff6e37-6c4d-40ad-8bfa-d1e08ee2f07e" d="M494.38843,382.87492a1.10727,1.10727,0,1,0,1.2112,1.10483A1.1598,1.1598,0,0,0,494.38843,382.87492Z"/><path class="f1ff6e37-6c4d-40ad-8bfa-d1e08ee2f07e" d="M483.02072,375.69653a.78266.78266,0,1,0,.85247.77955A.81808.81808,0,0,0,483.02072,375.69653Z"/><path class="f1ff6e37-6c4d-40ad-8bfa-d1e08ee2f07e" d="M491.61129,373.17346a.79283.79283,0,0,0-.71046.89215.84471.84471,0,0,0,.97956.645.788.788,0,0,0,.70625-.89181A.83867.83867,0,0,0,491.61129,373.17346Z"/><path class="f1ff6e37-6c4d-40ad-8bfa-d1e08ee2f07e" d="M499.555,364.15462a.79549.79549,0,0,0-.71773.89041.85126.85126,0,0,0,.97918.6502.79517.79517,0,0,0,.7139-.89041A.8555.8555,0,0,0,499.555,364.15462Z"/><path class="f1ff6e37-6c4d-40ad-8bfa-d1e08ee2f07e" d="M485.8059,365.69523a.78969.78969,0,0,0,.70629-.89041.84322.84322,0,0,0-.97578-.6502.79255.79255,0,0,0-.71007.89041A.8493.8493,0,0,0,485.8059,365.69523Z"/><path class="f1ff6e37-6c4d-40ad-8bfa-d1e08ee2f07e" d="M505.27422,375.31861a1.16207,1.16207,0,1,0,1.27469,1.15747A1.21391,1.21391,0,0,0,505.27422,375.31861Z"/><path class="f1ff6e37-6c4d-40ad-8bfa-d1e08ee2f07e" d="M495.82773,372.22552a1.319,1.319,0,1,0-1.4393-1.31261A1.38473,1.38473,0,0,0,495.82773,372.22552Z"/><path class="f1ff6e37-6c4d-40ad-8bfa-d1e08ee2f07e" d="M497.282,376.47608a2.20023,2.20023,0,1,0,2.40354,2.19082A2.30337,2.30337,0,0,0,497.282,376.47608Z"/><path class="f1ff6e37-6c4d-40ad-8bfa-d1e08ee2f07e" d="M504.72109,369.87607a2.04629,2.04629,0,1,0-2.03759,1.85578A1.95041,1.95041,0,0,0,504.72109,369.87607Z"/><path class="a2d54ae2-c48b-4337-b54f-d1654d135bd6" d="M415.7376,360.43117a3.18134,3.18134,0,0,1,.85878.10325c2.05673.6812,2.16493,3.15329,1.045,4.91879-1.11749,1.7654-3.81932,3.356-5.34519,1.87466a1.14687,1.14687,0,0,1-.21218-.99413c-1.24546.91071-2.85222,1.66927-4.27829.86325a3.79136,3.79136,0,0,1-1.29062-5.28462c.30659-.48182.50189-.42051.962-.71377-1.47985-.95589-1.6755-1.59571-3.06724-2.338a.34157.34157,0,0,1-.1684-.24788.42582.42582,0,0,1,.09378-.315c.46783-.59788,1.35472-1.67743,1.53049-1.56085,1.59656,1.04983.77221,2.29715,2.50234,3.13358a5.22265,5.22265,0,0,1,.74707-1.81329c1.11789-1.76548,3.21252-1.99718,5.07484-.94435A2.92026,2.92026,0,0,1,415.7376,360.43117Z"/><path class="a2d54ae2-c48b-4337-b54f-d1654d135bd6" d="M554.5309,354.11462a3.18186,3.18186,0,0,1,.03217.86437c-.35155,2.13789-2.7764,2.63093-4.69517,1.80055-1.9183-.828-3.91137-3.24821-2.68662-4.98673a1.14689,1.14689,0,0,1,.94878-.36488c-1.09409-1.0879-2.09433-2.55644-1.521-4.09091a3.79137,3.79137,0,0,1,5.01814-2.1003c.52379.22756.49374.43.85528.83868.713-1.611,1.31439-1.9042,1.83019-3.39482a.34156.34156,0,0,1,.21853-.205.42577.42577,0,0,1,.32581.04341c.66362.36869,1.86846,1.07605,1.78077,1.26787-.78754,1.741-2.14833,1.12158-2.70422,2.96113a5.22274,5.22274,0,0,1,1.90773.45464c1.91844.82838,2.47449,2.8611,1.72551,4.865A2.92028,2.92028,0,0,1,554.5309,354.11462Z"/><path class="b8bd7982-6633-4fa6-aac9-3860fe00f5bd" d="M215.08646,364.898a7.83185,7.83185,0,0,0,1.179-4.56124,7.94535,7.94535,0,0,0,3.36948-4.16707,7.21882,7.21882,0,0,0-2.55055-8.50111,6.58231,6.58231,0,0,0-6.73824-.185,6.57423,6.57423,0,0,0-4.53028-4.98594,7.25181,7.25181,0,0,0-8.12523,3.5991,7.97252,7.97252,0,0,0-.97717,5.269,7.76561,7.76561,0,0,0-2.694,3.86546,7.048,7.048,0,0,0,1.56863,7.11038,5.98013,5.98013,0,0,0,1.03675.83233,6.3756,6.3756,0,0,0,6.40857.18225,6.34991,6.34991,0,0,0,4.30963,4.738A6.92034,6.92034,0,0,0,215.08646,364.898Zm-7.039.88213a3.98741,3.98741,0,0,1-2.76436-3.69739,1.71,1.71,0,0,0-2.74319-1.2571,4.01839,4.01839,0,0,1-4.61451.309,4.53975,4.53975,0,0,1-1.607-5.18127,5.35914,5.35914,0,0,1,2.07254-2.82246,1.826,1.826,0,0,0,.76152-1.90265,5.468,5.468,0,0,1,.63394-3.93569,4.81434,4.81434,0,0,1,5.34317-2.475,3.96036,3.96036,0,0,1,1.69342.99986,4.55656,4.55656,0,0,1,1.27051,2.947,1.70693,1.70693,0,0,0,2.746,1.26051,4.23737,4.23737,0,0,1,4.92654-.32767,4.79954,4.79954,0,0,1,1.5944,5.66092v.0031a5.47655,5.47655,0,0,1-2.57845,3.04053,1.82559,1.82559,0,0,0-.952,1.81362,5.33727,5.33727,0,0,1-.79664,3.4079A4.5518,4.5518,0,0,1,208.04742,365.78014Z"/><path class="b8bd7982-6633-4fa6-aac9-3860fe00f5bd" d="M207.30662,405.82894a7.83188,7.83188,0,0,0,1.179-4.56125,7.94531,7.94531,0,0,0,3.36947-4.16706,7.2188,7.2188,0,0,0-2.55054-8.50111,6.58231,6.58231,0,0,0-6.73824-.185,6.5742,6.5742,0,0,0-4.53028-4.98594,7.2518,7.2518,0,0,0-8.12523,3.59909,7.97254,7.97254,0,0,0-.97717,5.269,7.76569,7.76569,0,0,0-2.694,3.86546,7.048,7.048,0,0,0,1.56864,7.11039,5.98043,5.98043,0,0,0,1.03674.83233,6.37563,6.37563,0,0,0,6.40857.18225,6.34994,6.34994,0,0,0,4.30964,4.738A6.92034,6.92034,0,0,0,207.30662,405.82894Zm-7.039.88213a3.98744,3.98744,0,0,1-2.76436-3.69739,1.71,1.71,0,0,0-2.74319-1.25711,4.01837,4.01837,0,0,1-4.61451.309,4.53973,4.53973,0,0,1-1.607-5.18126,5.3592,5.3592,0,0,1,2.07254-2.82247,1.826,1.826,0,0,0,.76152-1.90265,5.468,5.468,0,0,1,.63394-3.93569,4.81432,4.81432,0,0,1,5.34316-2.475,3.96022,3.96022,0,0,1,1.69343.99985,4.55658,4.55658,0,0,1,1.27051,2.94706,1.70694,1.70694,0,0,0,2.746,1.26051,4.23735,4.23735,0,0,1,4.92654-.32767,4.79953,4.79953,0,0,1,1.5944,5.66091v.0031a5.47652,5.47652,0,0,1-2.57845,3.04053,1.82561,1.82561,0,0,0-.952,1.81363,5.33728,5.33728,0,0,1-.79664,3.4079A4.55182,4.55182,0,0,1,200.26758,406.71107Z"/><path class="b8bd7982-6633-4fa6-aac9-3860fe00f5bd" d="M131.84844,393.24453a7.83187,7.83187,0,0,0,1.179-4.56125,7.94532,7.94532,0,0,0,3.36948-4.16706,7.21882,7.21882,0,0,0-2.55054-8.50111,6.58232,6.58232,0,0,0-6.73824-.185,6.57422,6.57422,0,0,0-4.53028-4.98594,7.25182,7.25182,0,0,0-8.12524,3.59909,7.97253,7.97253,0,0,0-.97716,5.269,7.76569,7.76569,0,0,0-2.694,3.86546,7.048,7.048,0,0,0,1.56864,7.11039,5.97968,5.97968,0,0,0,1.03674.83233,6.37562,6.37562,0,0,0,6.40857.18225,6.34991,6.34991,0,0,0,4.30964,4.738A6.92034,6.92034,0,0,0,131.84844,393.24453Zm-7.039.88213a3.98742,3.98742,0,0,1-2.76436-3.69739,1.71,1.71,0,0,0-2.7432-1.25711,4.01837,4.01837,0,0,1-4.6145.309,4.53977,4.53977,0,0,1-1.607-5.18127,5.35916,5.35916,0,0,1,2.07255-2.82247,1.826,1.826,0,0,0,.76152-1.90265,5.468,5.468,0,0,1,.63394-3.93569,4.81432,4.81432,0,0,1,5.34316-2.475,3.96024,3.96024,0,0,1,1.69342.99985,4.55653,4.55653,0,0,1,1.27051,2.94706,1.70693,1.70693,0,0,0,2.746,1.26051,4.23735,4.23735,0,0,1,4.92654-.32767,4.79953,4.79953,0,0,1,1.59441,5.66091v.0031a5.47653,5.47653,0,0,1-2.57845,3.04054,1.82558,1.82558,0,0,0-.952,1.81362,5.33741,5.33741,0,0,1-.79664,3.4079A4.55183,4.55183,0,0,1,124.80941,394.12666Z"/><path class="b8bd7982-6633-4fa6-aac9-3860fe00f5bd" d="M298.07527,418.88278a7.832,7.832,0,0,0,1.179-4.56124,7.94531,7.94531,0,0,0,3.36947-4.16706,7.2188,7.2188,0,0,0-2.55054-8.50111,6.58231,6.58231,0,0,0-6.73824-.185,6.57423,6.57423,0,0,0-4.53028-4.98594,7.25181,7.25181,0,0,0-8.12523,3.5991,7.97254,7.97254,0,0,0-.97717,5.269,7.76569,7.76569,0,0,0-2.694,3.86546,7.048,7.048,0,0,0,1.56864,7.11038,5.981,5.981,0,0,0,1.03674.83234,6.37563,6.37563,0,0,0,6.40857.18224,6.34993,6.34993,0,0,0,4.30964,4.738A6.92033,6.92033,0,0,0,298.07527,418.88278Zm-7.039.88214a3.98744,3.98744,0,0,1-2.76436-3.6974,1.71,1.71,0,0,0-2.74319-1.2571,4.01837,4.01837,0,0,1-4.61451.309,4.53975,4.53975,0,0,1-1.607-5.18126,5.35914,5.35914,0,0,1,2.07255-2.82247,1.826,1.826,0,0,0,.76152-1.90265,5.468,5.468,0,0,1,.63394-3.93569,4.81432,4.81432,0,0,1,5.34316-2.475,3.96022,3.96022,0,0,1,1.69343.99985,4.55663,4.55663,0,0,1,1.27051,2.94705,1.70693,1.70693,0,0,0,2.746,1.26051,4.23737,4.23737,0,0,1,4.92654-.32766,4.79953,4.79953,0,0,1,1.5944,5.66091v.0031a5.47655,5.47655,0,0,1-2.57845,3.04053,1.82561,1.82561,0,0,0-.952,1.81363,5.33728,5.33728,0,0,1-.79664,3.4079A4.55182,4.55182,0,0,1,291.03623,419.76492Z"/><path class="a2d54ae2-c48b-4337-b54f-d1654d135bd6" d="M339.15362,407.89434a3.18179,3.18179,0,0,1,.85878.10325c2.05673.6812,2.16493,3.15329,1.045,4.9188-1.11749,1.7654-3.81932,3.35594-5.34518,1.87465a1.14685,1.14685,0,0,1-.21219-.99413c-1.24546.91071-2.85222,1.66927-4.27828.86325a3.79135,3.79135,0,0,1-1.29063-5.28462c.30659-.48182.50189-.4205.962-.71377-1.47986-.95589-1.67551-1.59571-3.06725-2.338a.34157.34157,0,0,1-.1684-.24787.42584.42584,0,0,1,.09379-.315c.46782-.59788,1.35471-1.67743,1.53048-1.56085,1.59657,1.04983.77221,2.29716,2.50235,3.13359a5.22259,5.22259,0,0,1,.74706-1.8133c1.11789-1.76548,3.21252-1.99718,5.07484-.94435A2.92026,2.92026,0,0,1,339.15362,407.89434Z"/><path class="a2d54ae2-c48b-4337-b54f-d1654d135bd6" d="M359.24508,411.57194a2.60441,2.60441,0,0,1-.22078.68035c-.88073,1.546-2.90332,1.15913-4.15679-.09328-1.25377-1.25042-2.11291-3.759-.66786-4.71842a.94235.94235,0,0,1,.84028.01806c-.54-1.1905-.899-2.64634-.01765-3.65415a3.0997,3.0997,0,0,1,4.49272-.03667c.34193.34257.261.49.42552.92152,1.01152-1.02287,1.56174-1.05943,2.386-2.05151a.27051.27051,0,0,1,.22794-.08966.367.367,0,0,1,.24058.137c.41036.49634,1.14457,1.42693,1.022,1.54783-1.10634,1.1-1.98662.18814-2.94117,1.438a4.54518,4.54518,0,0,1,1.35173.9576,3.03716,3.03716,0,0,1-.04365,4.3192A2.34586,2.34586,0,0,1,359.24508,411.57194Z"/><path class="bcf9acc8-024d-4285-bc67-b0a6ef088194" d="M272.805,353.33279c-8.42006,0-15.27145,6.19973-15.27145,13.81628,0,7.618,6.85139,13.81482,15.27145,13.81482,8.42037,0,15.26564-6.19681,15.26564-13.81482C288.07063,359.53252,281.22536,353.33279,272.805,353.33279Z"/><path class="f1ff6e37-6c4d-40ad-8bfa-d1e08ee2f07e" d="M270.94021,361.96833a1.89386,1.89386,0,1,0-2.08542-1.88414A1.98686,1.98686,0,0,0,270.94021,361.96833Z"/><path class="f1ff6e37-6c4d-40ad-8bfa-d1e08ee2f07e" d="M266.54583,363.93362a1.33809,1.33809,0,1,0,1.47415,1.3313A1.40526,1.40526,0,0,0,266.54583,363.93362Z"/><path class="f1ff6e37-6c4d-40ad-8bfa-d1e08ee2f07e" d="M268.85479,371.15962a1.10543,1.10543,0,1,0,1.21932,1.099A1.15931,1.15931,0,0,0,268.85479,371.15962Z"/><path class="f1ff6e37-6c4d-40ad-8bfa-d1e08ee2f07e" d="M273.01917,375.27993a.92763.92763,0,1,0,1.02065.925A.97475.97475,0,0,0,273.01917,375.27993Z"/><path class="f1ff6e37-6c4d-40ad-8bfa-d1e08ee2f07e" d="M263.4398,369.26993a.65567.65567,0,1,0,.71837.65267A.68755.68755,0,0,0,263.4398,369.26993Z"/><path class="f1ff6e37-6c4d-40ad-8bfa-d1e08ee2f07e" d="M270.67893,367.15753a.66474.66474,0,0,0-.5987.74695.71167.71167,0,0,0,.82546.54.66062.66062,0,0,0,.59514-.74665A.70656.70656,0,0,0,270.67893,367.15753Z"/><path class="f1ff6e37-6c4d-40ad-8bfa-d1e08ee2f07e" d="M277.3729,359.60666a.667.667,0,0,0-.60482.74548.71717.71717,0,0,0,.82514.54437.66672.66672,0,0,0,.60159-.74548A.72072.72072,0,0,0,277.3729,359.60666Z"/><path class="f1ff6e37-6c4d-40ad-8bfa-d1e08ee2f07e" d="M265.78682,360.89651a.66207.66207,0,0,0,.59518-.74548.71034.71034,0,0,0-.82227-.54437.66448.66448,0,0,0-.59836.74548A.7155.7155,0,0,0,265.78682,360.89651Z"/><path class="f1ff6e37-6c4d-40ad-8bfa-d1e08ee2f07e" d="M282.19243,368.95353a.97355.97355,0,1,0,1.07416.96907A1.02023,1.02023,0,0,0,282.19243,368.95353Z"/><path class="f1ff6e37-6c4d-40ad-8bfa-d1e08ee2f07e" d="M274.232,366.36389a1.105,1.105,0,1,0-1.21287-1.099A1.1639,1.1639,0,0,0,274.232,366.36389Z"/><path class="f1ff6e37-6c4d-40ad-8bfa-d1e08ee2f07e" d="M275.45748,369.9226a1.84325,1.84325,0,1,0,2.02542,1.83423A1.93593,1.93593,0,0,0,275.45748,369.9226Z"/><path class="f1ff6e37-6c4d-40ad-8bfa-d1e08ee2f07e" d="M281.72631,364.39685a1.72545,1.72545,0,1,0-1.717,1.55372A1.63929,1.63929,0,0,0,281.72631,364.39685Z"/><path class="bcf9acc8-024d-4285-bc67-b0a6ef088194" d="M127.588,332.5201c-8.42,0-15.27144,6.19972-15.27144,13.81627,0,7.618,6.85139,13.81482,15.27144,13.81482,8.42038,0,15.26564-6.1968,15.26564-13.81482C142.8536,338.71982,136.00834,332.5201,127.588,332.5201Z"/><path class="f1ff6e37-6c4d-40ad-8bfa-d1e08ee2f07e" d="M125.72319,341.15563a1.89385,1.89385,0,1,0-2.08542-1.88414A1.98686,1.98686,0,0,0,125.72319,341.15563Z"/><path class="f1ff6e37-6c4d-40ad-8bfa-d1e08ee2f07e" d="M121.32881,343.12092a1.33809,1.33809,0,1,0,1.47415,1.33131A1.40526,1.40526,0,0,0,121.32881,343.12092Z"/><path class="f1ff6e37-6c4d-40ad-8bfa-d1e08ee2f07e" d="M123.63777,350.34693a1.10543,1.10543,0,1,0,1.21931,1.099A1.15932,1.15932,0,0,0,123.63777,350.34693Z"/><path class="f1ff6e37-6c4d-40ad-8bfa-d1e08ee2f07e" d="M127.80215,354.46723a.92763.92763,0,1,0,1.02065.925A.97476.97476,0,0,0,127.80215,354.46723Z"/><path class="f1ff6e37-6c4d-40ad-8bfa-d1e08ee2f07e" d="M118.22278,348.45724a.65567.65567,0,1,0,.71837.65266A.68755.68755,0,0,0,118.22278,348.45724Z"/><path class="f1ff6e37-6c4d-40ad-8bfa-d1e08ee2f07e" d="M125.4619,346.34484a.66474.66474,0,0,0-.59869.74694.71167.71167,0,0,0,.82546.54.66063.66063,0,0,0,.59514-.74666A.70655.70655,0,0,0,125.4619,346.34484Z"/><path class="f1ff6e37-6c4d-40ad-8bfa-d1e08ee2f07e" d="M132.15588,338.794a.667.667,0,0,0-.60482.74548.71717.71717,0,0,0,.82514.54438.66672.66672,0,0,0,.60159-.74549A.72073.72073,0,0,0,132.15588,338.794Z"/><path class="f1ff6e37-6c4d-40ad-8bfa-d1e08ee2f07e" d="M120.5698,340.08382a.66208.66208,0,0,0,.59518-.74549.71035.71035,0,0,0-.82227-.54437.66449.66449,0,0,0-.59836.74548A.7155.7155,0,0,0,120.5698,340.08382Z"/><path class="f1ff6e37-6c4d-40ad-8bfa-d1e08ee2f07e" d="M136.97541,348.14083a.97356.97356,0,1,0,1.07416.96907A1.02023,1.02023,0,0,0,136.97541,348.14083Z"/><path class="f1ff6e37-6c4d-40ad-8bfa-d1e08ee2f07e" d="M129.015,345.55119a1.105,1.105,0,1,0-1.21287-1.099A1.16388,1.16388,0,0,0,129.015,345.55119Z"/><path class="f1ff6e37-6c4d-40ad-8bfa-d1e08ee2f07e" d="M130.24046,349.1099a1.84325,1.84325,0,1,0,2.02542,1.83423A1.93594,1.93594,0,0,0,130.24046,349.1099Z"/><path class="f1ff6e37-6c4d-40ad-8bfa-d1e08ee2f07e" d="M136.50929,343.58415a1.72545,1.72545,0,1,0-1.717,1.55373A1.63929,1.63929,0,0,0,136.50929,343.58415Z"/><path class="bcf9acc8-024d-4285-bc67-b0a6ef088194" d="M145.50868,403.4664c-8.42005,0-15.27145,6.19973-15.27145,13.81628,0,7.618,6.8514,13.81482,15.27145,13.81482,8.42038,0,15.26564-6.19681,15.26564-13.81482C160.77432,409.66613,153.92906,403.4664,145.50868,403.4664Z"/><path class="f1ff6e37-6c4d-40ad-8bfa-d1e08ee2f07e" d="M143.6439,412.10194a1.89386,1.89386,0,1,0-2.08542-1.88414A1.98686,1.98686,0,0,0,143.6439,412.10194Z"/><path class="f1ff6e37-6c4d-40ad-8bfa-d1e08ee2f07e" d="M139.24953,414.06723a1.33809,1.33809,0,1,0,1.47414,1.33131A1.40526,1.40526,0,0,0,139.24953,414.06723Z"/><path class="f1ff6e37-6c4d-40ad-8bfa-d1e08ee2f07e" d="M141.55848,421.29324a1.10543,1.10543,0,1,0,1.21932,1.099A1.15931,1.15931,0,0,0,141.55848,421.29324Z"/><path class="f1ff6e37-6c4d-40ad-8bfa-d1e08ee2f07e" d="M145.72287,425.41354a.92763.92763,0,1,0,1.02065.925A.97476.97476,0,0,0,145.72287,425.41354Z"/><path class="f1ff6e37-6c4d-40ad-8bfa-d1e08ee2f07e" d="M136.1435,419.40355a.65566.65566,0,1,0,.71836.65266A.68755.68755,0,0,0,136.1435,419.40355Z"/><path class="f1ff6e37-6c4d-40ad-8bfa-d1e08ee2f07e" d="M143.38262,417.29114a.66473.66473,0,0,0-.59869.747.71166.71166,0,0,0,.82546.54.66063.66063,0,0,0,.59514-.74665A.70656.70656,0,0,0,143.38262,417.29114Z"/><path class="f1ff6e37-6c4d-40ad-8bfa-d1e08ee2f07e" d="M150.0766,409.74027a.667.667,0,0,0-.60482.74548.71715.71715,0,0,0,.82513.54437.66672.66672,0,0,0,.6016-.74548A.72074.72074,0,0,0,150.0766,409.74027Z"/><path class="f1ff6e37-6c4d-40ad-8bfa-d1e08ee2f07e" d="M138.49052,411.03012a.66207.66207,0,0,0,.59518-.74548.71035.71035,0,0,0-.82227-.54437.66449.66449,0,0,0-.59837.74548A.71549.71549,0,0,0,138.49052,411.03012Z"/><path class="f1ff6e37-6c4d-40ad-8bfa-d1e08ee2f07e" d="M154.89612,419.08714a.97355.97355,0,1,0,1.07416.96907A1.02023,1.02023,0,0,0,154.89612,419.08714Z"/><path class="f1ff6e37-6c4d-40ad-8bfa-d1e08ee2f07e" d="M146.93573,416.4975a1.105,1.105,0,1,0-1.21286-1.099A1.16388,1.16388,0,0,0,146.93573,416.4975Z"/><path class="f1ff6e37-6c4d-40ad-8bfa-d1e08ee2f07e" d="M148.16118,420.05621a1.84325,1.84325,0,1,0,2.02542,1.83423A1.93594,1.93594,0,0,0,148.16118,420.05621Z"/><path class="f1ff6e37-6c4d-40ad-8bfa-d1e08ee2f07e" d="M154.43,414.53046a1.72545,1.72545,0,1,0-1.717,1.55372A1.63931,1.63931,0,0,0,154.43,414.53046Z"/><path class="a2d54ae2-c48b-4337-b54f-d1654d135bd6" d="M250.044,386.86792a3.18174,3.18174,0,0,1-.81178.29864c-2.14151.3288-3.36225-1.82359-3.16787-3.90528.19227-2.0805,1.875-4.72587,3.90768-4.10066.49071.14859.64112.78884.64112.78884.695-1.37753,1.7809-2.78389,3.41753-2.71467a3.79135,3.79135,0,0,1,3.553,4.11936c-.0539.56854-.25572.60277-.53208,1.07321,1.75269.17822,2.21794.659,3.795.68713a.34157.34157,0,0,1,.26271.14417.4258.4258,0,0,1,.05977.32321c-.14471.74524-.44354,2.11005-.6531,2.08617-1.89936-.2088-1.73253-1.69458-3.65378-1.65257a5.22275,5.22275,0,0,1,.15941,1.95467c-.19258,2.08075-1.95263,3.23978-4.09,3.14919A2.92025,2.92025,0,0,1,250.044,386.86792Z"/><path class="a2d54ae2-c48b-4337-b54f-d1654d135bd6" d="M308.23284,383.99509a3.18183,3.18183,0,0,1,.32276-.8025c1.192-1.80922,3.60736-1.27165,5.02141.26838,1.41458,1.53766,2.24881,4.55987.42206,5.64865a1.1469,1.1469,0,0,1-1.01513-.0533c.556,1.43925.87121,3.18789-.27754,4.35568a3.79136,3.79136,0,0,1-5.43847-.1262c-.38566-.42121-.27572-.59389-.43943-1.11436-1.30744,1.1808-1.97612,1.20357-3.05443,2.35475a.34159.34159,0,0,1-.2831.09824.42583.42583,0,0,1-.27987-.17239c-.45586-.60705-1.268-1.74389-1.10978-1.88334,1.42846-1.26912,2.41888-.14909,3.676-1.60262a5.22247,5.22247,0,0,1-1.557-1.19238c-1.41455-1.53807-1.09428-3.621.40611-5.146A2.92026,2.92026,0,0,1,308.23284,383.99509Z"/><path class="a2d54ae2-c48b-4337-b54f-d1654d135bd6" d="M202.70677,413.63127a3.18155,3.18155,0,0,1,.815-.28978c2.145-.30545,3.34217,1.86011,3.12513,3.93956-.21492,2.07828-1.92642,4.70516-3.95212,4.05785-.48906-.15394-.63249-.79579-.63249-.79579-.70994,1.36988-1.81113,2.76432-3.4469,2.67728a3.79135,3.79135,0,0,1-3.5079-4.15783c.06009-.56792.26227-.59994.54374-1.06735-1.75065-.1973-2.21063-.68316-3.78732-.72844a.34157.34157,0,0,1-.26112-.147.42586.42586,0,0,1-.05624-.32385c.15282-.74362.4665-2.10509.67579-2.07893,1.897.22948,1.714,1.71335,3.63556,1.69228a5.22261,5.22261,0,0,1-.13811-1.95629c.21524-2.07853,1.98781-3.21832,4.1241-3.10444A2.92027,2.92027,0,0,1,202.70677,413.63127Z"/><path class="a2d54ae2-c48b-4337-b54f-d1654d135bd6" d="M216.62884,374.53646a3.18152,3.18152,0,0,1,.815-.28978c2.145-.30544,3.34217,1.86011,3.12512,3.93957-.21492,2.07827-1.92641,4.70515-3.95211,4.05784-.48907-.15393-.6325-.79578-.6325-.79578-.70993,1.36988-1.81112,2.76432-3.4469,2.67727a3.79136,3.79136,0,0,1-3.5079-4.15783c.06009-.56792.26228-.59994.54375-1.06734-1.75065-.19731-2.21063-.68317-3.78732-.72845a.34157.34157,0,0,1-.26112-.147.42581.42581,0,0,1-.05624-.32385c.15282-.74362.4665-2.10509.67579-2.07892,1.897.22947,1.714,1.71335,3.63556,1.69228a5.22262,5.22262,0,0,1-.13811-1.95629c.21524-2.07853,1.98781-3.21832,4.1241-3.10445A2.92026,2.92026,0,0,1,216.62884,374.53646Z"/><path class="a2d54ae2-c48b-4337-b54f-d1654d135bd6" d="M189.4864,368.474a3.18155,3.18155,0,0,1,.815-.28978c2.145-.30545,3.34218,1.86011,3.12513,3.93956-.21492,2.07828-1.92642,4.70516-3.95212,4.05785-.48906-.15394-.63249-.79578-.63249-.79578-.70993,1.36987-1.81113,2.76432-3.4469,2.67727a3.79135,3.79135,0,0,1-3.5079-4.15783c.06009-.56792.26227-.59994.54374-1.06735-1.75064-.1973-2.21063-.68316-3.78731-.72844a.34155.34155,0,0,1-.26112-.147.42577.42577,0,0,1-.05624-.32385c.15281-.74362.4665-2.10509.67579-2.07893,1.897.22948,1.714,1.71335,3.63555,1.69228a5.22261,5.22261,0,0,1-.1381-1.95629c.21524-2.07852,1.98781-3.21832,4.12409-3.10444A2.92026,2.92026,0,0,1,189.4864,368.474Z"/><path class="a2d54ae2-c48b-4337-b54f-d1654d135bd6" d="M158.03277,391.27706a3.182,3.182,0,0,1,.815-.28978c2.145-.30544,3.34217,1.86012,3.12513,3.93957-.21492,2.07828-1.92642,4.70516-3.95212,4.05785-.48906-.15394-.63249-.79579-.63249-.79579-.70994,1.36988-1.81113,2.76432-3.4469,2.67728a3.79136,3.79136,0,0,1-3.5079-4.15783c.06009-.56792.26227-.6.54374-1.06735-1.75065-.1973-2.21063-.68317-3.78732-.72844a.34158.34158,0,0,1-.26112-.147.42583.42583,0,0,1-.05624-.32384c.15282-.74363.4665-2.1051.67579-2.07893,1.897.22947,1.714,1.71335,3.63556,1.69228a5.22262,5.22262,0,0,1-.13811-1.95629c.21524-2.07853,1.98782-3.21832,4.1241-3.10444A2.92026,2.92026,0,0,1,158.03277,391.27706Z"/><path class="a2d54ae2-c48b-4337-b54f-d1654d135bd6" d="M151.16155,329.23545a3.18181,3.18181,0,0,1,.815-.28979c2.145-.30544,3.34218,1.86012,3.12513,3.93957-.21492,2.07828-1.92642,4.70516-3.95212,4.05785-.48906-.15394-.63249-.79579-.63249-.79579-.70993,1.36988-1.81112,2.76432-3.4469,2.67728a3.79136,3.79136,0,0,1-3.5079-4.15783c.06009-.56792.26227-.59995.54375-1.06735-1.75065-.1973-2.21063-.68317-3.78732-.72844a.34158.34158,0,0,1-.26112-.147.42577.42577,0,0,1-.05624-.32385c.15281-.74363.4665-2.1051.67579-2.07893,1.897.22948,1.714,1.71335,3.63556,1.69228a5.2224,5.2224,0,0,1-.13811-1.95629c.21524-2.07853,1.98781-3.21832,4.1241-3.10444A2.92025,2.92025,0,0,1,151.16155,329.23545Z"/><path class="a2d54ae2-c48b-4337-b54f-d1654d135bd6" d="M103.40531,361.613a3.18155,3.18155,0,0,1,.815-.28978c2.145-.30544,3.34217,1.86011,3.12513,3.93956-.21492,2.07828-1.92642,4.70516-3.95212,4.05785-.48906-.15393-.63249-.79578-.63249-.79578-.70994,1.36987-1.81113,2.76432-3.4469,2.67727a3.79135,3.79135,0,0,1-3.5079-4.15783c.06009-.56792.26227-.59994.54374-1.06735-1.75065-.1973-2.21063-.68316-3.78731-.72844a.34157.34157,0,0,1-.26113-.147.42586.42586,0,0,1-.05624-.32385c.15282-.74362.4665-2.10509.67579-2.07893,1.897.22948,1.714,1.71336,3.63556,1.69228a5.22257,5.22257,0,0,1-.13811-1.95628c.21524-2.07853,1.98782-3.21833,4.1241-3.10445A2.92026,2.92026,0,0,1,103.40531,361.613Z"/><path class="a2d54ae2-c48b-4337-b54f-d1654d135bd6" d="M223.09676,440.75055a3.18155,3.18155,0,0,1,.815-.28978c2.145-.30545,3.34218,1.86011,3.12513,3.93956-.21492,2.07828-1.92641,4.70516-3.95211,4.05785-.48907-.15394-.6325-.79579-.6325-.79579-.70993,1.36988-1.81112,2.76432-3.4469,2.67728a3.79136,3.79136,0,0,1-3.5079-4.15783c.06009-.56792.26227-.59994.54375-1.06735-1.75065-.1973-2.21063-.68316-3.78732-.72844a.34155.34155,0,0,1-.26112-.147.42582.42582,0,0,1-.05624-.32385c.15282-.74362.4665-2.10509.67579-2.07893,1.897.22948,1.714,1.71335,3.63556,1.69228a5.22261,5.22261,0,0,1-.13811-1.95629c.21524-2.07853,1.98781-3.21832,4.1241-3.10444A2.92024,2.92024,0,0,1,223.09676,440.75055Z"/><path class="a2d54ae2-c48b-4337-b54f-d1654d135bd6" d="M248.28306,430.91567a3.18153,3.18153,0,0,1,.85777.11132c2.05024.7005,2.1352,3.1735.99874,4.9284-1.134,1.75482-3.8507,3.3199-5.36257,1.82434a1.14688,1.14688,0,0,1-.20283-.99608c-1.254.899-2.86779,1.64239-4.28621.823a3.79136,3.79136,0,0,1-1.24091-5.29651c.31111-.47892.50583-.41577.96865-.7047-1.4708-.96976-1.66043-1.61139-3.04513-2.36676a.34157.34157,0,0,1-.16606-.24944.42576.42576,0,0,1,.09674-.31414c.47342-.59346,1.37041-1.66463,1.54508-1.54639,1.58663,1.06478.75059,2.3043,2.47279,3.157a5.22258,5.22258,0,0,1,.76407-1.8062c1.13444-1.7549,3.23115-1.9669,5.08349-.89662A2.92027,2.92027,0,0,1,248.28306,430.91567Z"/></g></g></svg>