<svg id="e336ef4f-f870-429b-a450-56c8945fea62" data-name="Layer 1" xmlns="http://www.w3.org/2000/svg" xmlns:xlink="http://www.w3.org/1999/xlink" viewBox="0 0 833.02 656.68"><defs><radialGradient id="a349f60e-d90c-444f-b7ae-cfcbb9b5fbef" cx="324.39" cy="-242.7" r="159.13" gradientTransform="translate(-221.11 619.01) scale(1.29 0.16)" gradientUnits="userSpaceOnUse"><stop offset="0"/><stop offset="0" stop-color="#020202"/><stop offset="0.71" stop-color="#fff" stop-opacity="0"/></radialGradient><radialGradient id="bc0eb094-ef51-4938-a625-196ad6fc2ef9" cx="459.45" cy="-660.15" r="159.13" gradientTransform="translate(-620.15 702.08) scale(1.78 0.18)" gradientUnits="userSpaceOnUse"><stop offset="0" stop-color="#003f05"/><stop offset="0" stop-color="#024107"/><stop offset="0.15" stop-color="#17511b" stop-opacity="0.92"/><stop offset="0.33" stop-color="#527d55" stop-opacity="0.68"/><stop offset="0.54" stop-color="#b4c6b5" stop-opacity="0.3"/><stop offset="0.66" stop-color="#fff" stop-opacity="0"/></radialGradient><radialGradient id="b966211d-8081-499e-a9d5-888b12e6a3d6" cx="480.16" cy="-1101.19" r="159.14" gradientTransform="translate(-620.15 1039.18) scale(1.78 0.41)" gradientUnits="userSpaceOnUse"><stop offset="0" stop-color="#006a1b"/><stop offset="0" stop-color="#026b1d"/><stop offset="0.11" stop-color="#0f7329" stop-opacity="0.95"/><stop offset="0.25" stop-color="#35894b" stop-opacity="0.8"/><stop offset="0.41" stop-color="#73ad82" stop-opacity="0.55"/><stop offset="0.58" stop-color="#cae0cf" stop-opacity="0.21"/><stop offset="0.67" stop-color="#fff" stop-opacity="0"/></radialGradient><linearGradient id="f56a02c0-def0-4fcd-adb5-4029ab18630c" x1="499.28" y1="81.8" x2="501.28" y2="273.79" gradientTransform="translate(0 96)" gradientUnits="userSpaceOnUse"><stop offset="0" stop-color="#006a1b"/><stop offset="0.09" stop-color="#005b16"/><stop offset="0.27" stop-color="#00450f"/><stop offset="0.46" stop-color="#00360a"/><stop offset="0.68" stop-color="#002d07"/><stop offset="0.99" stop-color="#002a06"/></linearGradient><linearGradient id="bb1ec8c6-729e-4cd9-8f3a-0c4c52db8cfb" x1="212.06" y1="469.26" x2="446.05" y2="80.78" gradientTransform="translate(0 96)" gradientUnits="userSpaceOnUse"><stop offset="0" stop-color="#a96015"/><stop offset="0.03" stop-color="#ab6014"/><stop offset="0.38" stop-color="#c25f09"/><stop offset="0.71" stop-color="#cf5e02"/><stop offset="1" stop-color="#d45e00"/></linearGradient><linearGradient id="eb2b227d-4288-4923-bf8e-c48bd87f9927" x1="63.23" y1="253.93" x2="596.07" y2="253.93" gradientTransform="translate(0 96)" gradientUnits="userSpaceOnUse"><stop offset="0" stop-color="#f96"/><stop offset="0.11" stop-color="#ff955b"/><stop offset="0.34" stop-color="#ff8f4c"/><stop offset="0.61" stop-color="#ff8c43"/><stop offset="0.99" stop-color="#ff8b40"/></linearGradient><linearGradient id="bb8f00fe-9971-4661-b4c8-a4165cfae663" x1="71.72" y1="412.18" x2="833.02" y2="412.18" xlink:href="#f56a02c0-def0-4fcd-adb5-4029ab18630c"/><linearGradient id="b6b7504f-b803-4840-b67a-f83199a28079" x1="291.41" y1="35" x2="347.05" y2="35" gradientTransform="translate(0 96)" gradientUnits="userSpaceOnUse"><stop offset="0" stop-color="#ffa415"/><stop offset="0.26" stop-color="#ed870c"/><stop offset="0.52" stop-color="#df7005"/><stop offset="0.78" stop-color="#d76301"/><stop offset="1" stop-color="#d45e00"/></linearGradient><linearGradient id="faefd86d-bda9-4ade-949e-307ee4954247" x1="239.07" y1="43.01" x2="286.64" y2="43.01" xlink:href="#b6b7504f-b803-4840-b67a-f83199a28079"/></defs><title>logo</title><g id="f854ee1a-43fa-4ed0-9c2b-8bb8b130c0a4" data-name="ec66a6b0-849a-4cf8-b230-d2f58475b2fa"><g id="a433ac24-49c9-4964-9404-1d87e79416a1" data-name="acb26bdc-fe60-4378-a87a-758548e88afc"><g id="ad58ec67-55ac-4d92-bf6b-05522c2b8379" data-name="fc50308e-e00a-4708-8beb-85f9e12a51af"><path d="M461.92,582.29c0,13.88-91.56,25.14-204.51,25.14S52.89,596.17,52.89,582.29s91.57-25.15,204.52-25.15S461.92,568.4,461.92,582.29Z" style="fill-rule:evenodd;fill:url(#a349f60e-d90c-444f-b7ae-cfcbb9b5fbef)"/><path d="M566.73,582c0,16.24-126.87,29.4-283.37,29.4S0,598.22,0,582s126.87-29.41,283.36-29.41S566.73,565.74,566.73,582Z" style="fill-rule:evenodd;fill:url(#bc0eb094-ef51-4938-a625-196ad6fc2ef9)"/><path d="M603.61,591.36c0,36.07-126.87,65.32-283.37,65.32S36.88,627.43,36.88,591.36,163.75,526,320.24,526,603.61,555.27,603.61,591.36Z" style="fill-rule:evenodd;fill:url(#b966211d-8081-499e-a9d5-888b12e6a3d6)"/><path d="M341.75,197.17c176-21.23,316.71,31.18,316.71,119.59,0,31.49-17.86,63.4-48.8,92.7-11.16-1.09-22.13-2-32.8-2.86,26.9-27.51,42.26-57.06,42.26-86.27C619.12,238.62,499,187.66,341.75,197.17Z" style="fill-rule:evenodd;fill:url(#f56a02c0-def0-4fcd-adb5-4029ab18630c)"/><path d="M88.26,453S81.82,485.61,114,491.59c6.18,1.15,18.63-1.58,35.84-6.58C123.48,477.77,102.26,466.84,88.26,453Z" style="fill:#022311;fill-rule:evenodd"/><path d="M329.65,237.48c147.14-20.55,266.42,22.13,266.42,95.33,0,24.49-13.36,49.29-36.62,72.21-43.64-2-87.32-.75-131.23,5.82-69.62,10.41-137.52,29.84-204.51,51.07-24.19,7.66-48.41,15.81-72.8,22.81-2.85.82-8.14,2.35-13.91,3.78-45.7-17.41-73.77-45.73-73.77-81.25C63.23,334.05,182.51,258,329.65,237.48Z" style="fill-rule:evenodd;fill:url(#bb1ec8c6-729e-4cd9-8f3a-0c4c52db8cfb)"/><path d="M329.65,223.18c147.14-20.56,266.42,22.12,266.42,95.33,0,29.46-19.33,59.37-52,85.95-38.53-1.07-77.1.58-115.85,6.38-69.62,10.41-137.52,29.84-204.51,51.07-20.94,6.63-41.9,13.62-63,19.92-59.54-16-97.52-47.57-97.52-88.89C63.23,319.74,182.51,243.73,329.65,223.18Z" style="fill-rule:evenodd;fill:url(#eb2b227d-4288-4923-bf8e-c48bd87f9927)"/><path d="M133.63,306.29,322.71,354,265,245.7C212,260,166.11,281.47,133.63,306.29Z" style="fill:#396;fill-rule:evenodd"/><path d="M276.65,242.72l53,107.88L388,227.75a512.39,512.39,0,0,0-58.3,4.83A535.94,535.94,0,0,0,276.65,242.72Z" style="fill:#fff;fill-rule:evenodd"/><path d="M399,227.62l-61.73,126.1L563.8,280.55C538.35,247.58,476.59,227.63,399,227.62Z" style="fill:red;fill-rule:evenodd"/><path d="M573.34,297.91l-234.87,64.6,54.46,44.91c43.94-8.28,89.13-13.45,132.68-12.48,31.86-24.33,50.8-51.84,50.8-78.81A55.11,55.11,0,0,0,573.34,297.91Z" style="fill:#ffc;fill-rule:evenodd"/><path d="M376.16,410.74l-44.28-41.15L324,422.87C341,418.51,358.45,414.41,376.16,410.74Z" style="fill:#ffc;fill-rule:evenodd"/><path d="M310.64,426.39,322.91,369,172.07,463.43q4.49,1.15,9.15,2.19C216.55,454.41,261.36,439.58,310.64,426.39Z" style="fill:#ffc;fill-rule:evenodd"/><path d="M148.72,456.12l170.67-95.06L119.66,317.93c-23.31,21.27-36.77,44.39-36.77,67.14C82.89,416.06,107.87,440.77,148.72,456.12Z" style="fill:#ffc;fill-rule:evenodd"/><path d="M82.12,455.63s-7.69,39,30.75,46.13c36,6.69,250.36-96.87,431-87.59h.1c87.31,4.5,207.45,19.67,289,45.57l-87.2,57.63L745,602.79S574.51,501.88,440.41,516.18c-92.35,9.85-274.74,109.89-345,41.46C78,540.65,59.68,485.67,82.12,455.63Z" style="fill-rule:evenodd;fill:url(#bb8f00fe-9971-4661-b4c8-a4165cfae663)"/><polygon points="147.68 505.19 160.15 522.78 180.95 525.03 168.95 540.93 174.86 561.25 154.97 553.49 137.82 563.79 137.53 543.1 121.02 529.15 140.73 524.11 147.68 505.19" style="fill:#f4ac0c;fill-rule:evenodd"/><polygon points="705.91 466.98 710.91 491.1 729.25 501.16 712.34 514.53 710.31 539.3 694.85 523.45 675.26 528.7 682.62 505.54 672.55 484.01 692.55 485.54 705.91 466.98" style="fill:#f4ac0c;fill-rule:evenodd"/><path d="M315.31,238.67c-28.9-69.74,16.44-91.35,27.92-133.46,6-22.06,5.12-47.6-4-69.6C332.07,18.34,321.06,6.17,308.61,0a78.68,78.68,0,0,1,14.54,23.32c28.9,69.74-16.45,91.35-27.92,133.46-6,22.06-5.12,47.6,4,69.61,7.15,17.26,18.17,29.43,30.61,35.6A78.72,78.72,0,0,1,315.31,238.67Z" style="fill-rule:evenodd;fill:url(#b6b7504f-b803-4840-b67a-f83199a28079)"/><path d="M247.63,199.6c-8-43,20.32-49.82,31.9-72.32a63.78,63.78,0,0,0,6.11-39.95c-2-10.65-6.75-18.88-13.07-23.87a45.26,45.26,0,0,1,5.43,15c8,43-20.32,49.82-31.9,72.32A63.85,63.85,0,0,0,240,190.7c2,10.65,6.76,18.88,13.07,23.87A45.71,45.71,0,0,1,247.63,199.6Z" style="fill-rule:evenodd;fill:url(#faefd86d-bda9-4ade-949e-307ee4954247)"/><path d="M343.83,513.25,319,521.09l-.2,15.46-17,5.35L305,461.62l16.37-5.16,48.76,63.89-17.3,5.46Zm-9.61-13.5-14.84-20.69-.28,25.45Z" style="fill:#ffc"/><path d="M247.22,497.69l4.09,16.12,26.19-6.64,4.06,16-26.19,6.64L261.74,555,245,559.21l-18.58-73.28,46.55-11.8,4.06,16Z" style="fill:#ffc"/><path d="M418.22,428.18l-2.42,80-16.34,5.15-47.79-64.2,17.94-5.65,30.73,41.95,1.45-52.1Z" style="fill:#ffc"/><path d="M454.69,501.19a34.79,34.79,0,0,1-14-12.27,48.13,48.13,0,0,1-5.42-40,34.72,34.72,0,0,1,10.25-15.55,32.93,32.93,0,0,1,34.81-4.72,34.76,34.76,0,0,1,14,12.27,48.06,48.06,0,0,1,5.42,40,34.78,34.78,0,0,1-10.24,15.55,32.92,32.92,0,0,1-34.81,4.72Zm23.72-18.69a18.17,18.17,0,0,0,4.91-8.35,30,30,0,0,0-3-22.37,18.29,18.29,0,0,0-7-6.74,14.59,14.59,0,0,0-16.76,2.27,18.35,18.35,0,0,0-4.91,8.35,30.08,30.08,0,0,0,3,22.37,18.24,18.24,0,0,0,7,6.74,14.57,14.57,0,0,0,16.75-2.27Z" style="fill:#ffc"/><path d="M521.05,426.09l17.37,1.39-4.67,58.46,29.31,2.35-1.35,16.9L515,501.45Z" style="fill:#ffc"/><path d="M623.34,501.92l-25.36-6-8.11,13.17-17.3-4.12,44-67.25,16.7,4,9,79.86-17.64-4.2ZM622,485.4,619.91,460l-13.31,21.7Z" style="fill:#ffc"/><path d="M340.94,555.83h16.84a21.43,21.43,0,0,1,10.36,2.38,16.24,16.24,0,0,1,6.72,6.84,22.13,22.13,0,0,1,2.36,10.5,31.81,31.81,0,0,1-3.08,14.36,22.74,22.74,0,0,1-8.55,9.52A23.59,23.59,0,0,1,353,602.79H333.19Zm12.41,36.36a11.67,11.67,0,0,0,6.89-2.05,12.66,12.66,0,0,0,4.41-5.63,21,21,0,0,0,1.49-8.15q0-4.77-2.44-7.35t-7.14-2.58h-6.43l-4.21,25.76Z" style="fill:#004817"/><path d="M395.77,566.09,394.5,574h17.22l-1.6,9.93H392.84l-1.39,8.58h20.33L410,602.79H378.94l7.75-47H417l-1.72,10.26Z" style="fill:#004817"/><path d="M423.91,555.83h11l-6,36.43h18.5l-1.77,10.53H416.15Z" style="fill:#004817"/><path d="M457.69,555.83h11l-7.75,47h-11Z" style="fill:#004817"/><path d="M515.63,555.83l-24.32,47h-10.8l-8.8-47H483l5.54,30.52,15.84-30.52Z" style="fill:#004817"/><path d="M527,566.09,525.76,574H543l-1.61,9.93H524.1l-1.38,8.58H543l-1.77,10.27H510.2l7.76-47h30.35l-1.72,10.26Z" style="fill:#004817"/><path d="M584.53,581.89a16.45,16.45,0,0,1-7.92,6.81l6.59,14.09H571.74L566,590.31h-5.53l-2.05,12.48h-11l7.75-47h16.57q7.41,0,11.52,4t4.09,11A21,21,0,0,1,584.53,581.89Zm-9.86-14.15a6.51,6.51,0,0,0-4.49-1.45h-5.76l-2.32,13.76h6.53a7.47,7.47,0,0,0,5.65-2.08,8.18,8.18,0,0,0,2-5.91A5.53,5.53,0,0,0,574.67,567.74Z" style="fill:#004817"/><path d="M611.34,586.15l-2.72,16.64h-11l2.77-17-9.86-30h11l6.09,18.72,12.41-18.72h11.13Z" style="fill:#004817"/><path d="M451.92,381.22c7.42.59,12.59,7.35,12.62,15.76l-31.25,3.75a21.92,21.92,0,0,1,.25-2.57C435.21,388.14,443.46,380.54,451.92,381.22Z" style="fill:#a31113"/><path d="M445.28,392a2.21,2.21,0,0,1-2.52,1.12,1.51,1.51,0,0,1-.83-2,1.46,1.46,0,0,1,.16-.3,2.19,2.19,0,0,1,2.51-1.11,1.5,1.5,0,0,1,.84,2,1.64,1.64,0,0,1-.16.29Z" style="fill:#f7f4f0"/><path d="M448.65,389.21a.79.79,0,0,1,1-.46.72.72,0,0,1,.21.12,1.31,1.31,0,0,1,.67,1.43.79.79,0,0,1-1,.46.72.72,0,0,1-.21-.12A1.31,1.31,0,0,1,448.65,389.21Z" style="fill:#f7f4f0"/><path d="M454,393.07a1.26,1.26,0,0,1,1.46-.65.88.88,0,0,1,.49,1.14.56.56,0,0,1-.09.17,1.29,1.29,0,0,1-1.47.66.89.89,0,0,1-.49-1.15A1,1,0,0,1,454,393.07Z" style="fill:#f7f4f0"/><path d="M454.77,388.12a.77.77,0,0,1,.87-.39.52.52,0,0,1,.29.68l-.05.1a.77.77,0,0,1-.87.39.52.52,0,0,1-.29-.68A.31.31,0,0,1,454.77,388.12Z" style="fill:#f7f4f0"/><path d="M449.78,393.33a.74.74,0,0,1,.9-.26.55.55,0,0,1,.14.77l0,.07a.72.72,0,0,1-.9.25.55.55,0,0,1-.15-.76Z" style="fill:#f7f4f0"/><path d="M446.65,387.48a.74.74,0,0,1-.9.26.56.56,0,0,1-.14-.77l.05-.06a.71.71,0,0,1,.9-.26.56.56,0,0,1,.14.77Z" style="fill:#f7f4f0"/><path d="M486.88,327.56c5.82.74,10,8.84,10,8.84s4.59,7.92,1.74,12.61c-2.95,4.86-7.6,6.42-11,4.1a.6.6,0,0,1-.25-.81.56.56,0,0,1,.47-.31,2.17,2.17,0,0,0,2.27-1.8c.46-2.61-.59-5.58-4-4.69s-10.59,6.77-10.59,6.77-3.09,3.69-6.78-3,1.4-6.78,1.4-6.78,9.45-1.68,12.29-3.65.87-4.51-1.7-5.74a2.35,2.35,0,0,0-2.94.57.67.67,0,0,1-.95-.06.7.7,0,0,1-.17-.45C476.68,329.24,480.84,326.8,486.88,327.56Z" style="fill:#b5855a"/><path d="M564.64,334l-29.35-18.4a.71.71,0,0,1-.32-1,.69.69,0,0,1,.16-.21c7-6.42,19-7.48,27.29-2.28s9.83,14.74,3.68,21.68A1.21,1.21,0,0,1,564.64,334Z" style="fill:#e31b27"/><path d="M563.91,328.54a1.93,1.93,0,0,1-1.66-.52,47.86,47.86,0,0,0-19.11-12,1.41,1.41,0,0,1-1-1.16,1.31,1.31,0,0,1,.83-1.26,18.51,18.51,0,0,1,17.26.79c5.06,3.17,6.86,8.46,5,13.2A1.64,1.64,0,0,1,563.91,328.54Z" style="fill:#f7f4f0"/><path d="M543.59,317.91q8.07,5,16,10A42.77,42.77,0,0,0,543.59,317.91Z" style="fill:#f7f4f0"/><path d="M560,320.43a13.17,13.17,0,0,1-2.83.77h0a9.22,9.22,0,0,1,1.8-1.89l0,0a1.09,1.09,0,0,1,1.4.09.57.57,0,0,1,.14.57.71.71,0,0,1-.45.46Z" style="fill:#e31b27"/><path d="M562,322.84a13.43,13.43,0,0,1-3,.31h0a10.8,10.8,0,0,1,2.22-1.58l.06,0a1.05,1.05,0,0,1,.76-.1.93.93,0,0,1,.6.4.59.59,0,0,1,0,.59.81.81,0,0,1-.56.37Z" style="fill:#e31b27"/><path d="M563.29,325.06a12.89,12.89,0,0,1-2.56.05h0a9.94,9.94,0,0,1,2.09-1.16l0,0a1,1,0,0,1,.67,0,.67.67,0,0,1,.44.38.49.49,0,0,1-.07.49.8.8,0,0,1-.52.27Z" style="fill:#e31b27"/><path d="M552.91,316a7,7,0,0,0-.27,2.37h0a9.41,9.41,0,0,0,1.89-1.84l0,0a.61.61,0,0,0,.09-.62.8.8,0,0,0-.53-.45,1.08,1.08,0,0,0-.73,0,.76.76,0,0,0-.45.46Z" style="fill:#e31b27"/><path d="M549.51,315a7.07,7.07,0,0,0,.32,2.37h0a8.65,8.65,0,0,0,1.4-2.1l0-.05a.61.61,0,0,0-.07-.62.93.93,0,0,0-.63-.36,1,1,0,0,0-.71.14.68.68,0,0,0-.33.52Z" style="fill:#e31b27"/><path d="M546.5,314.54a6.27,6.27,0,0,0,.55,2h0a6.69,6.69,0,0,0,.92-1.9v0a.53.53,0,0,0-.12-.52.88.88,0,0,0-1.15-.09.52.52,0,0,0-.21.48Z" style="fill:#e31b27"/><path d="M557.52,318.25a11.55,11.55,0,0,1-2.45,1.37h0a8,8,0,0,1,1.07-2.22l0,0a1,1,0,0,1,.63-.37,1.13,1.13,0,0,1,.76.15.65.65,0,0,1,.33.52.63.63,0,0,1-.28.54Z" style="fill:#e31b27"/><path d="M396.11,399.56c-4.89-3.23-5.07-12.36-5.07-12.36s-.6-9.13,4-12.07c4.8-3.05,9.65-2.4,11.66,1.19a.6.6,0,0,1-.13.84.62.62,0,0,1-.56.07,2.17,2.17,0,0,0-2.84.61c-1.56,2.13-1.94,5.26,1.53,6s12.49-1.37,12.49-1.37,4.41-1.95,4.74,5.74-4.26,5.45-4.26,5.45-9.22-2.68-12.64-2.17-2.77,3.66-1,5.89a2.35,2.35,0,0,0,2.89.8.66.66,0,0,1,.82.48.62.62,0,0,1-.05.48C406,402.58,401.18,402.93,396.11,399.56Z" style="fill:#b5855a"/><path d="M388,355.21l-.28,34.65a.84.84,0,0,1-.91.79.86.86,0,0,1-.23,0C375,388,365.89,378.37,366,368.59s9.31-16.12,20.84-14.53A1.3,1.3,0,0,1,388,355.21Z" style="fill:#e31b27"/><path d="M382.57,358.71a1.65,1.65,0,0,1,.55,1.68,38.14,38.14,0,0,0-.19,22.56,1.24,1.24,0,0,1-.57,1.48,2,2,0,0,1-1.91,0c-6.25-3.22-10.66-9.14-10.61-15.1s4.54-10.29,10.83-11.22A2.3,2.3,0,0,1,382.57,358.71Z" style="fill:#f7f4f0"/><path d="M384.65,381.58c0-6.32,0-12.61.15-18.91A34.15,34.15,0,0,0,384.65,381.58Z" style="fill:#f7f4f0"/><path d="M376.43,366.26a15.15,15.15,0,0,1,2.7,2h0a15.24,15.24,0,0,1-3.23-.53l-.07,0a1.25,1.25,0,0,1-.71-.5.82.82,0,0,1-.13-.74.7.7,0,0,1,.52-.42,1.12,1.12,0,0,1,.8.15Z" style="fill:#e31b27"/><path d="M377.72,363.34A13.58,13.58,0,0,1,380,365.7h0a15.46,15.46,0,0,1-3.18-1.07l-.06,0a1.25,1.25,0,0,1-.62-.6.74.74,0,0,1,.05-.72.73.73,0,0,1,.63-.3,1.21,1.21,0,0,1,.77.27Z" style="fill:#e31b27"/><path d="M379.24,361.07a12.07,12.07,0,0,1,1.76,2.15h0a14.06,14.06,0,0,1-2.63-1.17l-.06,0a1.06,1.06,0,0,1-.47-.55.58.58,0,0,1,.11-.58.67.67,0,0,1,.58-.2,1.09,1.09,0,0,1,.64.3Z" style="fill:#e31b27"/><path d="M376.36,374.68a10.34,10.34,0,0,0,2.73-1h0a14.91,14.91,0,0,0-3.23-.64h-.07a.91.91,0,0,0-.72.24.7.7,0,0,0-.14.69,1.12,1.12,0,0,0,.52.61,1.05,1.05,0,0,0,.79.14Z" style="fill:#e31b27"/><path d="M377.61,378.07a8.8,8.8,0,0,0,2.34-1.52h0a13,13,0,0,0-3.18-.09h-.06a.72.72,0,0,0-.71.73.68.68,0,0,0,.12.38,1.16,1.16,0,0,0,.62.53,1.05,1.05,0,0,0,.78,0Z" style="fill:#e31b27"/><path d="M379.09,380.88a7.59,7.59,0,0,0,1.78-1.51h0a10.71,10.71,0,0,0-2.65.21h-.05a.61.61,0,0,0-.48.38.69.69,0,0,0,.1.62,1,1,0,0,0,.57.4.86.86,0,0,0,.65-.06Z" style="fill:#e31b27"/><path d="M375.76,369.55a15.89,15.89,0,0,1,3.1,1.37h0a11.92,11.92,0,0,1-3.09.25h-.07a1.34,1.34,0,0,1-.81-.34,1,1,0,0,1-.35-.72.64.64,0,0,1,.34-.56,1,1,0,0,1,.76,0Z" style="fill:#e31b27"/><path d="M341.27,396.78c-3.51-5-2.23-11.93,2.68-16.61l18.43,17.45a15.2,15.2,0,0,1-1.64,1.26C354,403.39,345.27,402.44,341.27,396.78Z" style="fill:#a31113"/><path d="M351,395a1.68,1.68,0,0,1,2,.95,1.25,1.25,0,0,1-.76,1.61l-.21.06a1.69,1.69,0,0,1-2-1,1.26,1.26,0,0,1,.76-1.62Z" style="fill:#f7f4f0"/><path d="M347.65,394.4c-.37.17-.75-.09-.85-.59a1.12,1.12,0,0,1,.5-1.21c.37-.17.75.09.84.59A1.13,1.13,0,0,1,347.65,394.4Z" style="fill:#f7f4f0"/><path d="M347.14,388.93a1,1,0,0,1-1.14-.55.73.73,0,0,1,.44-.94l.13,0a1,1,0,0,1,1.14.56.73.73,0,0,1-.44.94A.5.5,0,0,1,347.14,388.93Z" style="fill:#f7f4f0"/><path d="M343.83,391.18a.58.58,0,0,1-.68-.33.43.43,0,0,1,.26-.56l.08,0a.58.58,0,0,1,.67.33.43.43,0,0,1-.26.56l-.07,0Z" style="fill:#f7f4f0"/><path d="M349.48,391.41a.57.57,0,0,1-.62-.42.44.44,0,0,1,.38-.51h.06a.58.58,0,0,1,.62.42.45.45,0,0,1-.39.51Z" style="fill:#f7f4f0"/><path d="M347.68,396.61a.55.55,0,0,1,.61.42.45.45,0,0,1-.38.51h-.06a.55.55,0,0,1-.61-.41.45.45,0,0,1,.38-.52h.06Z" style="fill:#f7f4f0"/><path d="M226.88,385.73c8.11-2.34,18.05,3.54,23.77,13.47l-29.92,17.22a33.19,33.19,0,0,1-1.47-3.14C214.21,400.76,217.63,388.4,226.88,385.73Z" style="fill:#a31113"/><path d="M227.26,401.17a2,2,0,0,1-1.63,2.32l-.23,0a2.47,2.47,0,0,1-2.23-2.39,2,2,0,0,1,1.63-2.32l.23,0A2.47,2.47,0,0,1,227.26,401.17Z" style="fill:#f7f4f0"/><path d="M228.89,396.51c-.17-.64.31-1.05,1.06-.9a2.24,2.24,0,0,1,1.67,1.42c.16.65-.31,1.05-1.07.91A2.23,2.23,0,0,1,228.89,396.51Z" style="fill:#f7f4f0"/><path d="M237,398.9a1.17,1.17,0,0,1,1-1.35l.13,0a1.45,1.45,0,0,1,1.3,1.4,1.17,1.17,0,0,1-.95,1.35l-.13,0A1.45,1.45,0,0,1,237,398.9Z" style="fill:#f7f4f0"/><path d="M234.51,392.72a.7.7,0,0,1,.56-.8h.08a.87.87,0,0,1,.78.83.7.7,0,0,1-.57.8h-.08A.85.85,0,0,1,234.51,392.72Z" style="fill:#f7f4f0"/><path d="M232.86,400.93a.66.66,0,0,1,.63-.68h.13a.9.9,0,0,1,.66.94.66.66,0,0,1-.64.68h-.12A.89.89,0,0,1,232.86,400.93Z" style="fill:#f7f4f0"/><path d="M225.64,395.29a.65.65,0,0,1-.63.68h-.13a.92.92,0,0,1-.66-1,.66.66,0,0,1,.64-.68H225A.89.89,0,0,1,225.64,395.29Z" style="fill:#f7f4f0"/><path d="M222.75,360.52c.51-5.84,8.44-10.36,8.44-10.36s7.73-4.89,12.53-2.23c5,2.76,6.71,7.34,4.53,10.82a.59.59,0,0,1-.8.28.6.6,0,0,1-.34-.46,2.16,2.16,0,0,0-1.89-2.19c-2.62-.36-5.54.8-4.52,4.2s7.18,10.31,7.18,10.31,3.81,2.94-2.78,6.9-6.83-1.13-6.83-1.13-2.05-9.38-4.13-12.14-4.54-.69-5.67,1.92a2.34,2.34,0,0,0,.68,2.91.68.68,0,0,1-.46,1.15C224.82,370.65,222.22,366.59,222.75,360.52Z" style="fill:#b5855a"/><path d="M260.52,436.19c-4.51-2-5.65-9.49-5.65-9.49s-1.5-7.46,2.12-10.56,8-3.38,10.06-.71a.52.52,0,0,1,0,.73.51.51,0,0,1-.46.12,2,2,0,0,0-2.34.92c-1.1,2-1.08,4.63,2,4.72S276.64,419,276.64,419s3.54-2.24,4.65,4.06-3,5.13-3,5.13-8.13-.88-11,0-2,3.43-.23,5a2,2,0,0,0,2.55.24.55.55,0,0,1,.74.24.61.61,0,0,1,0,.44C269.26,437.25,265.21,438.24,260.52,436.19Z" style="fill:#b5855a"/><path d="M186.57,432.72c-4.57,3.67-13.32,1.06-13.32,1.06s-8.88-2.21-10.27-7.51c-1.45-5.5.65-9.93,4.68-10.75a.59.59,0,0,1,.76.38.63.63,0,0,1-.1.56,2.16,2.16,0,0,0-.28,2.88c1.55,2.14,4.41,3.45,6.16.37s2.49-12.32,2.49-12.32-.51-4.79,6.91-2.76,3.9,5.72,3.9,5.72-5.36,8-5.92,11.37,2.64,3.76,5.31,2.77a2.34,2.34,0,0,0,1.63-2.51.68.68,0,0,1,.71-.64.66.66,0,0,1,.44.19C192.45,424.22,191.32,428.9,186.57,432.72Z" style="fill:#b5855a"/><path d="M119.24,411.63c-2.14,5.46-11,7.54-11,7.54s-8.81,2.51-12.65-1.4-4.37-8.94-1.29-11.66a.61.61,0,0,1,.85,0,.6.6,0,0,1,.19.54,2.17,2.17,0,0,0,1.19,2.64c2.41,1.08,5.55.79,5.53-2.75s-4-11.93-4-11.93-2.82-3.9,4.62-5.83,6.22,3,6.22,3-.68,9.58.53,12.81,4.16,1.95,6-.24a2.34,2.34,0,0,0,.17-3,.67.67,0,0,1,.3-.91.72.72,0,0,1,.48-.05C120.12,401.33,121.47,406,119.24,411.63Z" style="fill:#b5855a"/><path d="M146.15,363.21l21.62-27.07a.86.86,0,0,1,1.21-.06,1.19,1.19,0,0,1,.15.18c7.47,9.16,8.67,22.37,2.57,30s-17.28,6.92-25.37-1.46A1.3,1.3,0,0,1,146.15,363.21Z" style="fill:#e31b27"/><path d="M152.53,363.79a1.66,1.66,0,0,1,.62-1.66,38.2,38.2,0,0,0,14.08-17.62,1.26,1.26,0,0,1,1.37-.82,2.05,2.05,0,0,1,1.47,1.21c2.93,6.4,2.74,13.77-1,18.44s-9.93,5.28-15.46,2.13A2.38,2.38,0,0,1,152.53,363.79Z" style="fill:#f7f4f0"/><path d="M165,344.51q-5.84,7.49-11.8,14.79A34.08,34.08,0,0,0,165,344.51Z" style="fill:#f7f4f0"/><path d="M162,361.64a15.12,15.12,0,0,1-.9-3.24h0a14.41,14.41,0,0,1,2.21,2.41l0,.06a1.27,1.27,0,0,1,.25.84.81.81,0,0,1-.36.65.65.65,0,0,1-.67,0,1.12,1.12,0,0,1-.53-.6Z" style="fill:#e31b27"/><path d="M159.21,363.14a13.86,13.86,0,0,1-.36-3.28h0a15.13,15.13,0,0,1,1.84,2.79l0,.07a1.25,1.25,0,0,1,.12.85.77.77,0,0,1-.48.54.76.76,0,0,1-.68-.15,1.16,1.16,0,0,1-.44-.7Z" style="fill:#e31b27"/><path d="M156.61,364a12.3,12.3,0,0,1-.05-2.78h0a13.48,13.48,0,0,1,1.36,2.54l0,.06a1,1,0,0,1,0,.73.6.6,0,0,1-.45.39.68.68,0,0,1-.57-.21,1,1,0,0,1-.32-.63Z" style="fill:#e31b27"/><path d="M167.29,355.07a10.14,10.14,0,0,0-2.78-.89h0a14.64,14.64,0,0,0,2.15,2.5l.05,0a.88.88,0,0,0,.72.26.69.69,0,0,0,.53-.46,1.1,1.1,0,0,0,0-.8,1.15,1.15,0,0,0-.53-.6Z" style="fill:#e31b27"/><path d="M168.4,351.63a8.7,8.7,0,0,0-2.78-.25h0a13,13,0,0,0,2.45,2l0,0a.71.71,0,0,0,1-.14.61.61,0,0,0,.15-.37,1.25,1.25,0,0,0-.16-.8,1,1,0,0,0-.61-.48Z" style="fill:#e31b27"/><path d="M169,348.51a7.28,7.28,0,0,0-2.33.08h0a10.9,10.9,0,0,0,2.21,1.47l.05,0a.63.63,0,0,0,.61,0,.7.7,0,0,0,.31-.55,1.06,1.06,0,0,0-.2-.67.84.84,0,0,0-.56-.35Z" style="fill:#e31b27"/><path d="M164.59,359.47a15.59,15.59,0,0,1-1.59-3h0a12.41,12.41,0,0,1,2.59,1.72l.05,0a1.35,1.35,0,0,1,.43.77,1,1,0,0,1-.18.78.62.62,0,0,1-.6.23,1,1,0,0,1-.64-.44Z" style="fill:#e31b27"/><path d="M531.69,369.37a2.78,2.78,0,0,1,.16-.85c.81-2,3.28-1.95,5-.72s3.1,4,1.52,5.46a1.14,1.14,0,0,1-1,.14c.83,1.3,1.48,3,.58,4.33a3.79,3.79,0,0,1-5.26,1l-.09-.07c-.47-.33-.39-.53-.65-1-1,1.41-1.71,1.56-2.54,2.91a.35.35,0,0,1-.25.15.43.43,0,0,1-.31-.12c-.57-.5-1.59-1.46-1.46-1.63,1.15-1.52,2.34-.62,3.29-2.29a5.16,5.16,0,0,1-1.76-.86c-1.69-1.23-1.79-3.34-.62-5.13A2.94,2.94,0,0,1,531.69,369.37Z" style="fill:#00722a"/><path d="M441.84,351.07c-10.2,0-18.5,6.11-18.5,13.61s8.3,13.62,18.5,13.62,18.51-6.11,18.51-13.62S452.05,351.07,441.84,351.07Z" style="fill:#a31113"/><path d="M439.58,359.58c1.4,0,2.52-.83,2.52-1.86s-1.12-1.86-2.52-1.86-2.52.84-2.52,1.86S438.18,359.58,439.58,359.58Z" style="fill:#f7f4f0"/><path d="M434.26,361.51c-1,0-1.78.59-1.78,1.32s.79,1.31,1.78,1.31,1.78-.59,1.78-1.31S435.24,361.51,434.26,361.51Z" style="fill:#f7f4f0"/><path d="M437.06,368.63c-.82,0-1.47.49-1.47,1.09s.65,1.08,1.47,1.08,1.47-.48,1.47-1.08S437.87,368.63,437.06,368.63Z" style="fill:#f7f4f0"/><path d="M442.1,372.69c-.68,0-1.23.41-1.23.92s.55.9,1.23.9,1.24-.4,1.24-.9S442.79,372.69,442.1,372.69Z" style="fill:#f7f4f0"/><path d="M430.49,366.77c-.48,0-.87.29-.87.64s.39.65.87.65.87-.29.87-.65S431,366.77,430.49,366.77Z" style="fill:#f7f4f0"/><path d="M439.27,364.69c-.48.06-.8.38-.73.74a.88.88,0,0,0,1,.53c.48,0,.8-.39.72-.74A.86.86,0,0,0,439.27,364.69Z" style="fill:#f7f4f0"/><path d="M447.38,357.25c-.48.06-.81.38-.73.73a.88.88,0,0,0,1,.54c.48-.06.8-.38.73-.73A.88.88,0,0,0,447.38,357.25Z" style="fill:#f7f4f0"/><path d="M433.34,358.52c.47-.06.8-.38.72-.73a.87.87,0,0,0-1-.54c-.47.06-.79.38-.72.73A.88.88,0,0,0,433.34,358.52Z" style="fill:#f7f4f0"/><path d="M453.22,366.46c-.71,0-1.29.43-1.29,1s.58,1,1.29,1,1.3-.43,1.3-1S454,366.46,453.22,366.46Z" style="fill:#f7f4f0"/><path d="M443.57,363.91c.83,0,1.49-.49,1.49-1.08s-.66-1.09-1.49-1.09-1.47.49-1.47,1.09S442.77,363.91,443.57,363.91Z" style="fill:#f7f4f0"/><path d="M445.06,367.41c-1.36,0-2.46.81-2.46,1.81s1.1,1.81,2.46,1.81,2.45-.81,2.45-1.81S446.41,367.41,445.06,367.41Z" style="fill:#f7f4f0"/><path d="M452.66,362c0-.85-.93-1.53-2.08-1.53s-2.08.68-2.08,1.53.93,1.53,2.08,1.53S452.66,362.81,452.66,362Z" style="fill:#f7f4f0"/><path d="M526.14,316.72c-10,0-18.12,7.41-18.12,16.5s8.13,16.5,18.12,16.5,18.12-7.4,18.12-16.5S536.13,316.72,526.14,316.72Z" style="fill:#a31113"/><path d="M523.93,327a2.26,2.26,0,1,0-2.48-2.25,2.37,2.37,0,0,0,2.47,2.25Z" style="fill:#f7f4f0"/><path d="M518.71,329.38a1.6,1.6,0,1,0,.31,3.18,1.58,1.58,0,0,0,1.44-1.59A1.68,1.68,0,0,0,518.71,329.38Z" style="fill:#f7f4f0"/><path d="M521.45,338a1.32,1.32,0,1,0,1.45,1.32,1.39,1.39,0,0,0-1.44-1.32Z" style="fill:#f7f4f0"/><path d="M526.39,342.94a1.11,1.11,0,0,0,.21,2.2,1.12,1.12,0,0,0,1-1.1A1.16,1.16,0,0,0,526.39,342.94Z" style="fill:#f7f4f0"/><path d="M515,335.76a.78.78,0,1,0,.85.78A.82.82,0,0,0,515,335.76Z" style="fill:#f7f4f0"/><path d="M523.62,333.23a.8.8,0,0,0-.72.87v0a.84.84,0,0,0,1,.64.79.79,0,0,0,.71-.86h0v0A.84.84,0,0,0,523.62,333.23Z" style="fill:#f7f4f0"/><path d="M531.56,324.22a.78.78,0,0,0-.72.86v0a.85.85,0,0,0,1,.65.8.8,0,0,0,.72-.87v0A.86.86,0,0,0,531.56,324.22Z" style="fill:#f7f4f0"/><path d="M517.81,325.76a.8.8,0,0,0,.71-.87v0a.84.84,0,0,0-1-.65.79.79,0,0,0-.71.86h0v0A.85.85,0,0,0,517.81,325.76Z" style="fill:#f7f4f0"/><path d="M537.28,335.38a1.16,1.16,0,1,0,1.27,1.16,1.21,1.21,0,0,0-1.26-1.16h0Z" style="fill:#f7f4f0"/><path d="M527.83,332.29a1.32,1.32,0,1,0-.24-2.63,1.32,1.32,0,0,0-1.2,1.31A1.39,1.39,0,0,0,527.83,332.29Z" style="fill:#f7f4f0"/><path d="M529.29,336.54a2.2,2.2,0,1,0,2.4,2.19A2.29,2.29,0,0,0,529.29,336.54Z" style="fill:#f7f4f0"/><path d="M536.73,329.94a2,2,0,1,0-2.23,1.84h.19A2,2,0,0,0,536.73,329.94Z" style="fill:#f7f4f0"/><path d="M404.09,350.8a26.47,26.47,0,0,0,8.7-.18,21.13,21.13,0,0,0,8.91,2c6.28.17,12.32-1.86,14.31-4.84,1.57-2.27.61-4.7-2.38-6.42,4.14-1.19,6.88-3.33,7.18-5.7a3.59,3.59,0,0,0-.1-1.22l-4.37,1.2s0,0,0,0a3.08,3.08,0,0,1-1.15,1.88,10.27,10.27,0,0,1-4.78,2,3,3,0,0,0-2.26,1.35c-.23.61.18,1.23,1.08,1.6,2.73,1.15,3.73,2.9,2.59,4.58-1.32,1.92-5.35,3.23-9.6,3.11h0a13.86,13.86,0,0,1-6.53-1.57,5.47,5.47,0,0,0-3.67-.39,17.88,17.88,0,0,1-6.48.21c-2.8-.41-4.9-1.51-5.62-2.82l-4.1,1.13C397.07,348.68,400.05,350.2,404.09,350.8Z" style="fill:#e31b27"/><path d="M494.13,356.66c-10,0-18.12,7.41-18.12,16.5s8.13,16.5,18.12,16.5,18.12-7.4,18.12-16.5S504.13,356.66,494.13,356.66Z" style="fill:#a31113"/><path d="M491.92,367a2.27,2.27,0,1,0-2.47-2.25,2.36,2.36,0,0,0,2.47,2.25Z" style="fill:#f7f4f0"/><path d="M486.71,369.32a1.6,1.6,0,1,0,1.75,1.59A1.68,1.68,0,0,0,486.71,369.32Z" style="fill:#f7f4f0"/><path d="M489.45,378a1.32,1.32,0,1,0,1.44,1.32,1.38,1.38,0,0,0-1.44-1.32Z" style="fill:#f7f4f0"/><path d="M494.39,382.87A1.11,1.11,0,1,0,495.6,384,1.17,1.17,0,0,0,494.39,382.87Z" style="fill:#f7f4f0"/><path d="M483,375.7a.78.78,0,1,0,.85.78A.82.82,0,0,0,483,375.7Z" style="fill:#f7f4f0"/><path d="M491.61,373.17a.8.8,0,0,0-.71.87h0v0a.85.85,0,0,0,1,.64.79.79,0,0,0,.71-.86v0A.85.85,0,0,0,491.61,373.17Z" style="fill:#f7f4f0"/><path d="M499.55,364.15a.8.8,0,0,0-.72.87h0v0a.86.86,0,0,0,1,.65.8.8,0,0,0,.71-.87h0v0A.86.86,0,0,0,499.55,364.15Z" style="fill:#f7f4f0"/><path d="M485.81,365.7a.8.8,0,0,0,.71-.87v0a.84.84,0,0,0-1-.65.8.8,0,0,0-.72.87h0v0A.85.85,0,0,0,485.81,365.7Z" style="fill:#f7f4f0"/><path d="M505.27,375.32a1.16,1.16,0,1,0,1.28,1.16,1.22,1.22,0,0,0-1.27-1.16h0Z" style="fill:#f7f4f0"/><path d="M495.83,372.23a1.32,1.32,0,1,0-1.44-1.32A1.39,1.39,0,0,0,495.83,372.23Z" style="fill:#f7f4f0"/><path d="M497.28,376.48a2.2,2.2,0,1,0,2.41,2.19A2.31,2.31,0,0,0,497.28,376.48Z" style="fill:#f7f4f0"/><path d="M504.72,369.88a2,2,0,1,0-2.23,1.84h.19A2,2,0,0,0,504.72,369.88Z" style="fill:#f7f4f0"/><path d="M415.74,360.43a3.55,3.55,0,0,1,.86.1c2,.69,2.16,3.16,1,4.92s-3.82,3.36-5.34,1.88a1.16,1.16,0,0,1-.22-1c-1.24.91-2.85,1.67-4.27.87a3.79,3.79,0,0,1-1.35-5.19l.06-.1c.3-.48.5-.42,1-.71-1.48-1-1.68-1.6-3.07-2.34a.35.35,0,0,1-.17-.25.4.4,0,0,1,.1-.31c.46-.6,1.35-1.68,1.53-1.56,1.59,1.05.77,2.29,2.5,3.13a5,5,0,0,1,.75-1.81c1.11-1.77,3.21-2,5.07-.95A2.93,2.93,0,0,1,415.74,360.43Z" style="fill:#00722a"/><path d="M554.53,354.11a3.17,3.17,0,0,1,0,.87c-.35,2.14-2.77,2.63-4.69,1.8s-3.91-3.25-2.69-5a1.16,1.16,0,0,1,1-.36c-1.09-1.09-2.09-2.56-1.52-4.09a3.79,3.79,0,0,1,4.91-2.15h0l.11.05c.52.22.49.43.85.84.72-1.62,1.32-1.91,1.83-3.4a.34.34,0,0,1,.22-.2.42.42,0,0,1,.33,0c.66.37,1.87,1.08,1.78,1.27-.79,1.74-2.15,1.12-2.71,3a5.24,5.24,0,0,1,1.91.45c1.92.83,2.48,2.86,1.73,4.87A2.92,2.92,0,0,1,554.53,354.11Z" style="fill:#00722a"/><path d="M215.09,364.9a7.9,7.9,0,0,0,1.18-4.56,7.91,7.91,0,0,0,3.36-4.17,7.21,7.21,0,0,0-2.55-8.5,6.56,6.56,0,0,0-6.73-.19,6.58,6.58,0,0,0-4.53-5,7.24,7.24,0,0,0-8.13,3.6,8,8,0,0,0-1,5.27,7.76,7.76,0,0,0-2.69,3.86,7,7,0,0,0,1.57,7.11,5.43,5.43,0,0,0,1,.83,6.39,6.39,0,0,0,6.41.19,6.35,6.35,0,0,0,4.31,4.73A6.92,6.92,0,0,0,215.09,364.9Zm-7,.88a4,4,0,0,1-2.77-3.7,1.7,1.7,0,0,0-1.81-1.6,1.66,1.66,0,0,0-.93.35,4,4,0,0,1-4.61.3,4.52,4.52,0,0,1-1.61-5.18,5.32,5.32,0,0,1,2.07-2.82,1.82,1.82,0,0,0,.76-1.9,5.48,5.48,0,0,1,.64-3.94,4.81,4.81,0,0,1,5.34-2.47,3.89,3.89,0,0,1,1.69,1,4.51,4.51,0,0,1,1.27,2.94,1.71,1.71,0,0,0,1.8,1.62,1.66,1.66,0,0,0,1-.36,4.24,4.24,0,0,1,4.93-.32,4.8,4.8,0,0,1,1.59,5.66h0a5.49,5.49,0,0,1-2.58,3,1.83,1.83,0,0,0-.95,1.82,5.29,5.29,0,0,1-.8,3.4,4.55,4.55,0,0,1-5,2.16Z" style="fill:#e31b27"/><path d="M207.31,405.83a7.88,7.88,0,0,0,1.18-4.56,8,8,0,0,0,3.37-4.17,7.23,7.23,0,0,0-2.56-8.5,6.58,6.58,0,0,0-6.73-.19,6.58,6.58,0,0,0-4.53-5,7.24,7.24,0,0,0-8.13,3.6,8,8,0,0,0-1,5.27,7.85,7.85,0,0,0-2.69,3.86,7,7,0,0,0,1.57,7.11,5.2,5.2,0,0,0,1,.83,6.37,6.37,0,0,0,6.4.19,6.38,6.38,0,0,0,4.31,4.74A6.94,6.94,0,0,0,207.31,405.83Zm-7,.88a4,4,0,0,1-2.77-3.7,1.7,1.7,0,0,0-1.81-1.6,1.66,1.66,0,0,0-.93.35,4,4,0,0,1-4.61.31,4.54,4.54,0,0,1-1.61-5.19,5.32,5.32,0,0,1,2.07-2.82,1.82,1.82,0,0,0,.76-1.9,5.48,5.48,0,0,1,.64-3.94,4.81,4.81,0,0,1,5.34-2.47,3.89,3.89,0,0,1,1.69,1,4.51,4.51,0,0,1,1.27,2.95,1.71,1.71,0,0,0,2.75,1.26,4.23,4.23,0,0,1,4.93-.33,4.8,4.8,0,0,1,1.59,5.66h0a5.49,5.49,0,0,1-2.58,3,1.84,1.84,0,0,0-.95,1.82,5.29,5.29,0,0,1-.8,3.4,4.55,4.55,0,0,1-5,2.16Z" style="fill:#e31b27"/><path d="M131.85,393.24a7.86,7.86,0,0,0,1.18-4.56,8,8,0,0,0,3.37-4.16,7.23,7.23,0,0,0-2.55-8.5,6.57,6.57,0,0,0-6.74-.19,6.59,6.59,0,0,0-4.53-5,7.27,7.27,0,0,0-8.13,3.6,8,8,0,0,0-1,5.27,7.78,7.78,0,0,0-2.7,3.87,7,7,0,0,0,1.57,7.11,6,6,0,0,0,1,.83,6.36,6.36,0,0,0,6.41.18,6.34,6.34,0,0,0,4.31,4.74A6.91,6.91,0,0,0,131.85,393.24Zm-7,.89a4,4,0,0,1-2.76-3.7,1.71,1.71,0,0,0-1.81-1.6,1.76,1.76,0,0,0-.94.34,4,4,0,0,1-4.61.31,4.54,4.54,0,0,1-1.61-5.18,5.39,5.39,0,0,1,2.07-2.82,1.83,1.83,0,0,0,.76-1.91,5.46,5.46,0,0,1,.64-3.93,4.81,4.81,0,0,1,5.34-2.48,4,4,0,0,1,1.69,1,4.62,4.62,0,0,1,1.28,2.95,1.7,1.7,0,0,0,2.74,1.26,4.26,4.26,0,0,1,4.93-.33,4.8,4.8,0,0,1,1.59,5.66h0a5.48,5.48,0,0,1-2.58,3,1.84,1.84,0,0,0-.95,1.81,5.3,5.3,0,0,1-.79,3.41,4.56,4.56,0,0,1-5,2.16Z" style="fill:#e31b27"/><path d="M298.08,418.88a7.78,7.78,0,0,0,1.17-4.56,7.89,7.89,0,0,0,3.37-4.17,7.21,7.21,0,0,0-2.55-8.5,6.6,6.6,0,0,0-6.74-.18,6.56,6.56,0,0,0-4.53-5,7.26,7.26,0,0,0-8.12,3.6,8,8,0,0,0-1,5.27,7.77,7.77,0,0,0-2.69,3.87,7,7,0,0,0,1.57,7.11,6.2,6.2,0,0,0,7.44,1,6.38,6.38,0,0,0,4.31,4.74A6.93,6.93,0,0,0,298.08,418.88Zm-7,.88a4,4,0,0,1-2.77-3.69,1.72,1.72,0,0,0-1.81-1.61,1.66,1.66,0,0,0-.93.35,4,4,0,0,1-4.62.31,4.54,4.54,0,0,1-1.6-5.18,5.29,5.29,0,0,1,2.07-2.82,1.84,1.84,0,0,0,.76-1.91,5.46,5.46,0,0,1,.64-3.93,4.8,4.8,0,0,1,5.34-2.48,4,4,0,0,1,1.69,1,4.55,4.55,0,0,1,1.27,2.95,1.71,1.71,0,0,0,1.8,1.61,1.75,1.75,0,0,0,.95-.35,4.23,4.23,0,0,1,4.92-.33,4.79,4.79,0,0,1,1.6,5.66h0a5.52,5.52,0,0,1-2.58,3,1.82,1.82,0,0,0-.95,1.81,5.4,5.4,0,0,1-.8,3.41,4.53,4.53,0,0,1-5,2.15Z" style="fill:#e31b27"/><path d="M339.15,407.89a3.12,3.12,0,0,1,.86.11c2.06.68,2.17,3.15,1.05,4.92s-3.82,3.35-5.35,1.87a1.14,1.14,0,0,1-.21-1c-1.25.91-2.85,1.67-4.28.86a3.8,3.8,0,0,1-1.35-5.19l.06-.09c.31-.49.5-.42,1-.72-1.48-1-1.67-1.59-3.06-2.34a.3.3,0,0,1-.17-.24.45.45,0,0,1,.09-.32c.47-.6,1.36-1.68,1.53-1.56,1.6,1.05.77,2.3,2.5,3.13a5.43,5.43,0,0,1,.75-1.81c1.12-1.77,3.21-2,5.08-.94A2.9,2.9,0,0,1,339.15,407.89Z" style="fill:#00722a"/><path d="M359.25,411.57a2.6,2.6,0,0,1-.23.68c-.88,1.55-2.9,1.16-4.15-.09s-2.12-3.76-.67-4.72a.92.92,0,0,1,.84,0c-.54-1.19-.9-2.65,0-3.66a3.1,3.1,0,0,1,4.38-.14.57.57,0,0,1,.11.11c.35.34.27.49.43.92,1-1,1.56-1.06,2.39-2.05a.24.24,0,0,1,.22-.09.32.32,0,0,1,.24.14c.42.49,1.15,1.42,1,1.54-1.11,1.1-2,.19-2.94,1.44a4.56,4.56,0,0,1,1.35,1,3,3,0,0,1,0,4.29h0l0,0A2.33,2.33,0,0,1,359.25,411.57Z" style="fill:#00722a"/><path d="M272.8,353.33c-8.42,0-15.27,6.2-15.27,13.82S264.38,381,272.8,381s15.27-6.19,15.27-13.81S281.23,353.33,272.8,353.33Z" style="fill:#a31113"/><path d="M270.94,362a1.89,1.89,0,1,0-2.09-1.89,2,2,0,0,0,2.09,1.89Z" style="fill:#f7f4f0"/><path d="M266.55,363.93a1.34,1.34,0,1,0,1.47,1.33A1.41,1.41,0,0,0,266.55,363.93Z" style="fill:#f7f4f0"/><path d="M268.85,371.16a1.11,1.11,0,1,0,1.22,1.1,1.15,1.15,0,0,0-1.21-1.1Z" style="fill:#f7f4f0"/><path d="M273,375.28a.93.93,0,1,0,1,.92A1,1,0,0,0,273,375.28Z" style="fill:#f7f4f0"/><path d="M263.44,369.27a.66.66,0,0,0,.13,1.31.67.67,0,0,0,.59-.66A.68.68,0,0,0,263.44,369.27Z" style="fill:#f7f4f0"/><path d="M270.68,367.16a.65.65,0,0,0-.6.72h0v0a.7.7,0,0,0,.83.54.65.65,0,0,0,.59-.71h0v0A.71.71,0,0,0,270.68,367.16Z" style="fill:#f7f4f0"/><path d="M277.37,359.61a.66.66,0,0,0-.6.72v0a.72.72,0,0,0,.82.55.68.68,0,0,0,.61-.73h0v0A.7.7,0,0,0,277.37,359.61Z" style="fill:#f7f4f0"/><path d="M265.79,360.9a.66.66,0,0,0,.59-.72v0a.7.7,0,0,0-.82-.54.66.66,0,0,0-.6.72h0v0A.73.73,0,0,0,265.79,360.9Z" style="fill:#f7f4f0"/><path d="M282.19,369a1,1,0,0,0-.87,1.07,1,1,0,0,0,1.95-.1,1,1,0,0,0-1.07-1h0Z" style="fill:#f7f4f0"/><path d="M274.23,366.36a1.11,1.11,0,0,0-.21-2.2,1.11,1.11,0,0,0-1,1.1A1.15,1.15,0,0,0,274.23,366.36Z" style="fill:#f7f4f0"/><path d="M275.46,369.92a1.84,1.84,0,1,0,2,1.84A1.93,1.93,0,0,0,275.46,369.92Z" style="fill:#f7f4f0"/><path d="M281.73,364.4a1.73,1.73,0,1,0-1.89,1.54H280A1.65,1.65,0,0,0,281.73,364.4Z" style="fill:#f7f4f0"/><path d="M127.59,332.52c-8.42,0-15.27,6.2-15.27,13.82s6.85,13.81,15.27,13.81,15.26-6.2,15.26-13.81S136,332.52,127.59,332.52Z" style="fill:#a31113"/><path d="M125.72,341.16a1.89,1.89,0,1,0-.38-3.77,1.89,1.89,0,0,0-1.7,1.88,2,2,0,0,0,2.08,1.89Z" style="fill:#f7f4f0"/><path d="M121.33,343.12a1.34,1.34,0,1,0,1.47,1.33A1.41,1.41,0,0,0,121.33,343.12Z" style="fill:#f7f4f0"/><path d="M123.64,350.35a1.11,1.11,0,1,0,1.22,1.1,1.16,1.16,0,0,0-1.22-1.1Z" style="fill:#f7f4f0"/><path d="M127.8,354.47a.92.92,0,0,0-.83,1,.93.93,0,0,0,1,.83.92.92,0,0,0,.83-.92A1,1,0,0,0,127.8,354.47Z" style="fill:#f7f4f0"/><path d="M118.22,348.46a.65.65,0,0,0-.59.71.66.66,0,0,0,.72.59.65.65,0,0,0,.59-.65A.68.68,0,0,0,118.22,348.46Z" style="fill:#f7f4f0"/><path d="M125.46,346.34a.68.68,0,0,0-.6.73h0v0a.72.72,0,0,0,.83.54.66.66,0,0,0,.6-.72v0A.7.7,0,0,0,125.46,346.34Z" style="fill:#f7f4f0"/><path d="M132.16,338.79a.68.68,0,0,0-.61.73h0v0a.72.72,0,0,0,.83.54.66.66,0,0,0,.6-.72h0v0A.73.73,0,0,0,132.16,338.79Z" style="fill:#f7f4f0"/><path d="M120.57,340.08a.66.66,0,0,0,.6-.72h0v0a.73.73,0,0,0-.83-.55.68.68,0,0,0-.6.73h0v0A.72.72,0,0,0,120.57,340.08Z" style="fill:#f7f4f0"/><path d="M137,348.14a1,1,0,1,0,1.07,1,1,1,0,0,0-1.07-1Z" style="fill:#f7f4f0"/><path d="M129,345.55a1.1,1.1,0,1,0-1.21-1.1A1.17,1.17,0,0,0,129,345.55Z" style="fill:#f7f4f0"/><path d="M130.24,349.11a1.84,1.84,0,1,0,2,1.83A1.94,1.94,0,0,0,130.24,349.11Z" style="fill:#f7f4f0"/><path d="M136.51,343.58a1.72,1.72,0,1,0-1.89,1.55h.17A1.64,1.64,0,0,0,136.51,343.58Z" style="fill:#f7f4f0"/><path d="M145.51,403.47c-8.42,0-15.27,6.2-15.27,13.81s6.85,13.82,15.27,13.82,15.26-6.2,15.26-13.82S153.93,403.47,145.51,403.47Z" style="fill:#a31113"/><path d="M143.64,412.1a1.89,1.89,0,1,0-2.08-1.88,2,2,0,0,0,2.08,1.88Z" style="fill:#f7f4f0"/><path d="M139.25,414.07a1.34,1.34,0,0,0-1.2,1.46,1.34,1.34,0,0,0,2.67-.13A1.4,1.4,0,0,0,139.25,414.07Z" style="fill:#f7f4f0"/><path d="M141.56,421.29a1.11,1.11,0,1,0,.23,2.2,1.11,1.11,0,0,0,1-1.1,1.16,1.16,0,0,0-1.22-1.1Z" style="fill:#f7f4f0"/><path d="M145.72,425.41a.93.93,0,1,0,1,.93A1,1,0,0,0,145.72,425.41Z" style="fill:#f7f4f0"/><path d="M136.14,419.4a.66.66,0,0,0,.13,1.31.65.65,0,0,0,.59-.65A.7.7,0,0,0,136.14,419.4Z" style="fill:#f7f4f0"/><path d="M143.38,417.29a.67.67,0,0,0-.6.72h0v0a.72.72,0,0,0,.83.54.67.67,0,0,0,.6-.72v0A.7.7,0,0,0,143.38,417.29Z" style="fill:#f7f4f0"/><path d="M150.08,409.74a.67.67,0,0,0-.61.72h0v0a.72.72,0,0,0,.83.54.67.67,0,0,0,.6-.72h0v0A.72.72,0,0,0,150.08,409.74Z" style="fill:#f7f4f0"/><path d="M138.49,411a.67.67,0,0,0,.6-.72h0v0a.72.72,0,0,0-.83-.54.67.67,0,0,0-.6.72v0A.7.7,0,0,0,138.49,411Z" style="fill:#f7f4f0"/><path d="M154.9,419.09a1,1,0,1,0,1.07,1,1,1,0,0,0-1.07-1Z" style="fill:#f7f4f0"/><path d="M146.94,416.5a1.11,1.11,0,1,0-1.22-1.1A1.17,1.17,0,0,0,146.94,416.5Z" style="fill:#f7f4f0"/><path d="M148.16,420.06a1.84,1.84,0,1,0,2,1.83A1.94,1.94,0,0,0,148.16,420.06Z" style="fill:#f7f4f0"/><path d="M154.43,414.53a1.72,1.72,0,1,0-1.89,1.55h.17A1.63,1.63,0,0,0,154.43,414.53Z" style="fill:#f7f4f0"/><path d="M250,386.87a3.56,3.56,0,0,1-.81.3c-2.14.33-3.36-1.83-3.17-3.91s1.88-4.72,3.91-4.1c.49.15.64.79.64.79.7-1.38,1.78-2.78,3.42-2.72a3.79,3.79,0,0,1,3.56,4,.37.37,0,0,1,0,.11c-.05.57-.25.61-.53,1.08,1.75.18,2.22.66,3.8.68a.35.35,0,0,1,.26.15.44.44,0,0,1,.06.32c-.15.75-.44,2.11-.65,2.09-1.9-.21-1.74-1.7-3.66-1.65a5.12,5.12,0,0,1,.16,2c-.19,2.08-1.95,3.24-4.09,3.15A2.94,2.94,0,0,1,250,386.87Z" style="fill:#00722a"/><path d="M308.23,384a2.88,2.88,0,0,1,.33-.81c1.19-1.81,3.6-1.27,5,.27s2.25,4.56.42,5.65a1.18,1.18,0,0,1-1-.05c.56,1.44.88,3.18-.27,4.35a3.8,3.8,0,0,1-5.37,0l-.07-.08c-.39-.43-.28-.6-.44-1.12-1.31,1.18-2,1.21-3.06,2.36a.31.31,0,0,1-.28.09.42.42,0,0,1-.28-.17c-.45-.61-1.27-1.74-1.11-1.88,1.43-1.27,2.42-.15,3.68-1.6a5.21,5.21,0,0,1-1.56-1.2c-1.41-1.53-1.09-3.62.41-5.14A2.9,2.9,0,0,1,308.23,384Z" style="fill:#00722a"/><path d="M202.71,413.63a3.26,3.26,0,0,1,.81-.29c2.15-.3,3.34,1.86,3.13,3.94s-1.93,4.71-4,4.06c-.48-.16-.63-.8-.63-.8-.71,1.37-1.81,2.77-3.44,2.68a3.79,3.79,0,0,1-3.52-4.05.45.45,0,0,1,0-.11c.06-.57.26-.6.54-1.06-1.75-.2-2.21-.69-3.79-.73a.35.35,0,0,1-.26-.15.4.4,0,0,1,0-.32c.15-.75.46-2.11.67-2.08,1.9.23,1.72,1.71,3.64,1.69a5.18,5.18,0,0,1-.14-2c.22-2.08,2-3.22,4.12-3.1A2.91,2.91,0,0,1,202.71,413.63Z" style="fill:#00722a"/><path d="M216.63,374.54a3,3,0,0,1,.81-.29c2.15-.31,3.35,1.86,3.13,3.94s-1.93,4.7-3.95,4.05c-.49-.15-.64-.79-.64-.79-.71,1.37-1.81,2.76-3.44,2.68a3.79,3.79,0,0,1-3.52-4.05h0s0-.08,0-.11c.06-.57.26-.6.54-1.07-1.75-.2-2.21-.68-3.78-.73a.33.33,0,0,1-.27-.15.4.4,0,0,1-.05-.32c.15-.74.47-2.1.67-2.08,1.9.23,1.72,1.72,3.64,1.69a5.13,5.13,0,0,1-.14-1.95c.22-2.08,2-3.22,4.13-3.11A2.93,2.93,0,0,1,216.63,374.54Z" style="fill:#00722a"/><path d="M189.49,368.47a3.26,3.26,0,0,1,.81-.29c2.15-.3,3.34,1.86,3.13,3.94s-1.93,4.71-4,4.06c-.48-.15-.63-.79-.63-.79-.71,1.37-1.81,2.76-3.44,2.67a3.78,3.78,0,0,1-3.52-4,.37.37,0,0,1,0-.11c.06-.57.26-.6.54-1.07-1.75-.2-2.21-.69-3.79-.73a.35.35,0,0,1-.26-.15.4.4,0,0,1,0-.32c.15-.75.46-2.11.67-2.08,1.9.23,1.72,1.71,3.64,1.69a5.14,5.14,0,0,1-.14-1.95c.21-2.08,2-3.22,4.12-3.11A2.94,2.94,0,0,1,189.49,368.47Z" style="fill:#00722a"/><path d="M158,391.28a3,3,0,0,1,.82-.29c2.14-.31,3.34,1.86,3.12,3.94s-1.92,4.7-3.95,4.05c-.49-.15-.63-.79-.63-.79-.71,1.37-1.81,2.76-3.45,2.68a3.8,3.8,0,0,1-3.52-4.05.41.41,0,0,0,0-.11c.06-.57.27-.6.55-1.07-1.75-.2-2.21-.68-3.79-.73a.33.33,0,0,1-.26-.14.48.48,0,0,1-.06-.33c.16-.74.47-2.1.68-2.08,1.9.23,1.71,1.72,3.63,1.7a5.19,5.19,0,0,1-.13-2c.21-2.08,2-3.22,4.12-3.11A2.93,2.93,0,0,1,158,391.28Z" style="fill:#00722a"/><path d="M151.16,329.24A2.68,2.68,0,0,1,152,329c2.14-.31,3.34,1.86,3.12,3.94s-1.92,4.7-3.95,4.05c-.49-.15-.63-.79-.63-.79-.71,1.37-1.81,2.76-3.45,2.67a3.79,3.79,0,0,1-3.52-4h0a.45.45,0,0,0,0-.11c.06-.57.26-.6.55-1.07-1.75-.2-2.21-.68-3.79-.73a.34.34,0,0,1-.26-.15.44.44,0,0,1-.06-.32c.15-.74.47-2.11.68-2.08,1.89.23,1.71,1.71,3.63,1.69a5.34,5.34,0,0,1-.14-1.95c.22-2.08,2-3.22,4.13-3.11A2.93,2.93,0,0,1,151.16,329.24Z" style="fill:#00722a"/><path d="M103.41,361.61a3.26,3.26,0,0,1,.81-.29c2.15-.3,3.34,1.86,3.13,3.94s-1.93,4.71-4,4.06c-.49-.15-.63-.8-.63-.8-.71,1.37-1.81,2.77-3.45,2.68a3.78,3.78,0,0,1-3.51-4,.49.49,0,0,1,0-.12c.06-.56.26-.6.54-1.06-1.75-.2-2.21-.69-3.79-.73a.35.35,0,0,1-.26-.15.4.4,0,0,1,0-.32c.15-.75.46-2.11.67-2.08,1.9.23,1.71,1.71,3.64,1.69a5.18,5.18,0,0,1-.14-2c.21-2.07,2-3.21,4.12-3.1A2.92,2.92,0,0,1,103.41,361.61Z" style="fill:#00722a"/><path d="M223.1,440.75a3.26,3.26,0,0,1,.81-.29c2.15-.3,3.34,1.86,3.13,3.94s-1.93,4.71-4,4.06c-.48-.16-.63-.8-.63-.8-.71,1.37-1.81,2.77-3.44,2.68a3.79,3.79,0,0,1-3.52-4,.45.45,0,0,1,0-.11c.06-.57.26-.6.54-1.07-1.75-.19-2.21-.68-3.79-.72a.35.35,0,0,1-.26-.15.4.4,0,0,1-.05-.32c.15-.75.46-2.11.67-2.08,1.9.23,1.72,1.71,3.64,1.69a5.18,5.18,0,0,1-.14-2c.22-2.08,2-3.22,4.12-3.1A2.91,2.91,0,0,1,223.1,440.75Z" style="fill:#00722a"/><path d="M248.28,430.92a2.78,2.78,0,0,1,.86.11c2.05.7,2.14,3.17,1,4.93s-3.85,3.32-5.36,1.82a1.15,1.15,0,0,1-.21-1c-1.25.9-2.86,1.65-4.28.83a3.79,3.79,0,0,1-1.3-5.21l.06-.09c.31-.48.5-.42,1-.7-1.48-1-1.66-1.62-3.05-2.37a.37.37,0,0,1-.17-.25.43.43,0,0,1,.1-.31c.47-.6,1.37-1.67,1.55-1.55,1.58,1.06.75,2.3,2.47,3.16a5.36,5.36,0,0,1,.76-1.81c1.14-1.76,3.23-2,5.09-.9A2.93,2.93,0,0,1,248.28,430.92Z" style="fill:#00722a"/></g></g></g></svg>